<svg id="Layer_1" data-name="Layer 1" xmlns="http://www.w3.org/2000/svg" viewBox="0 0 233.03 282"><defs><style>.cls-1,.cls-10,.cls-11{fill:#231f20;}.cls-1,.cls-15,.cls-17,.cls-18,.cls-19,.cls-20,.cls-21,.cls-22,.cls-23,.cls-24,.cls-27,.cls-35,.cls-36,.cls-37,.cls-38,.cls-39,.cls-46,.cls-47,.cls-48,.cls-49,.cls-50,.cls-51,.cls-52,.cls-53,.cls-54,.cls-8{stroke:#fff;}.cls-1,.cls-10,.cls-11,.cls-13,.cls-14,.cls-15,.cls-17,.cls-18,.cls-19,.cls-2,.cls-20,.cls-21,.cls-22,.cls-23,.cls-24,.cls-27,.cls-3,.cls-32,.cls-33,.cls-35,.cls-36,.cls-37,.cls-38,.cls-39,.cls-4,.cls-46,.cls-47,.cls-48,.cls-49,.cls-5,.cls-50,.cls-51,.cls-52,.cls-53,.cls-54,.cls-6,.cls-7,.cls-8{stroke-miterlimit:10;}.cls-1{stroke-width:0.93px;}.cls-12,.cls-2,.cls-32,.cls-55,.cls-8{fill:#010101;}.cls-2,.cls-32{stroke:#010101;}.cls-2{stroke-width:0.53px;}.cls-14,.cls-3,.cls-33,.cls-34{fill:#1d396a;}.cls-3,.cls-33,.cls-5,.cls-6,.cls-7{stroke:#221f1f;}.cls-3,.cls-6{stroke-width:1.05px;}.cls-4{fill:#ee2926;stroke:#ee2926;stroke-width:0.47px;}.cls-28,.cls-41,.cls-5,.cls-6,.cls-7{fill:#221f1f;}.cls-5{stroke-width:0.96px;}.cls-7{stroke-width:0.98px;}.cls-8{stroke-width:0.65px;}.cls-9{fill:#6c6d70;opacity:0.86;}.cls-10,.cls-11,.cls-13{stroke:#211e1f;}.cls-10{stroke-width:0.85px;}.cls-11{stroke-width:0.87px;}.cls-12{opacity:0.84;}.cls-13{fill:none;stroke-width:0.66px;}.cls-14{stroke:#231f20;}.cls-14,.cls-19,.cls-33{stroke-width:0.13px;}.cls-15,.cls-16,.cls-17,.cls-18,.cls-19,.cls-20,.cls-21,.cls-22,.cls-23,.cls-24,.cls-25,.cls-29,.cls-30,.cls-35,.cls-36,.cls-37,.cls-38,.cls-39,.cls-43,.cls-46,.cls-47,.cls-48,.cls-49,.cls-50,.cls-51,.cls-52,.cls-53,.cls-54{fill:#fff;}.cls-15{stroke-width:0.17px;}.cls-17{stroke-width:0.14px;}.cls-18{stroke-width:0.15px;}.cls-20{stroke-width:0.13px;}.cls-21{stroke-width:0.12px;}.cls-22{stroke-width:0.12px;}.cls-23{stroke-width:0.12px;}.cls-24{stroke-width:0.24px;}.cls-25{font-size:9.2px;}.cls-25,.cls-28,.cls-29,.cls-30,.cls-43{font-family:Superclarendon-Regular, Superclarendon;}.cls-26,.cls-27{fill:#dc2728;}.cls-27{stroke-width:3.61px;}.cls-28,.cls-30{font-size:4.6px;}.cls-29{font-size:11.04px;}.cls-31{letter-spacing:-0.03em;}.cls-32{stroke-width:0.03px;}.cls-35{stroke-width:0.16px;}.cls-36{stroke-width:0.13px;}.cls-37{stroke-width:0.13px;}.cls-38{stroke-width:0.12px;}.cls-39{stroke-width:0.18px;}.cls-40{opacity:0.96;}.cls-42{fill:#211e1f;}.cls-43{font-size:5px;}.cls-44{letter-spacing:-0.03em;}.cls-45{letter-spacing:-0.02em;}.cls-46{stroke-width:0.05px;}.cls-47{stroke-width:0.06px;}.cls-48{stroke-width:0.05px;}.cls-49{stroke-width:0.05px;}.cls-50{stroke-width:0.05px;}.cls-51{stroke-width:0.05px;}.cls-52{stroke-width:0.05px;}.cls-53{stroke-width:0.05px;}.cls-54{stroke-width:0.05px;}</style></defs><title>logomark</title><path class="cls-1" d="M183,191.36V192c-.28,36.14-23.4,67.07-56.24,80.21a95.53,95.53,0,0,1-48.38,5.86c-1-.21-2-.44-3-.67-3.09-.7-6.12-1.53-9.11-2.48a120.23,120.23,0,0,1-15-5.87A118.42,118.42,0,0,1,39.94,263a106.81,106.81,0,0,1-10.4-7.18c-.41-.36-.81-.73-1.21-1.1A86.28,86.28,0,0,1,1.44,206.91,83.91,83.91,0,0,1,0,191.36,85.91,85.91,0,0,1,.63,181a83.91,83.91,0,0,1,7-24.75,85.41,85.41,0,0,1,4.64-8.78,89.29,89.29,0,0,1,23.82-25.87,92.55,92.55,0,0,1,24.65-12.81l-.57.28a1.18,1.18,0,0,0-.19.11A76.53,76.53,0,0,0,49.7,115l-.13.08a75,75,0,0,0-8.34,6.53A68.92,68.92,0,0,0,24,145.27c-.33.74-.64,1.47-.92,2.23a62.49,62.49,0,0,0-4.42,23.13v.28A63.78,63.78,0,0,0,19.52,181a64.62,64.62,0,0,0,10.53,25.88C43.64,226.77,68.06,240,95.92,240,98,240,100,240,102,239.8a85.67,85.67,0,0,0,10.37-1.37c25-4.87,45.43-20.59,55-41.37.53-.95,1-1.9,1.49-2.86h0a41.43,41.43,0,0,0,4.37-17.79.11.11,0,0,0,0-.08,28,28,0,0,0-.11-3,1.55,1.55,0,0,0,0-.21q.06-1.1.06-2.22v-.23a63.34,63.34,0,0,0-7.69-30.22h0c-.42-.79-.86-1.56-1.32-2.33A84.88,84.88,0,0,1,183,191.36Z" transform="translate(0.47)"/><ellipse class="cls-2" cx="75.26" cy="118.12" rx="3.21" ry="3.25"/><path class="cls-3" d="M75.12,173.38" transform="translate(0.47)"/><ellipse class="cls-4" cx="82.51" cy="178.12" rx="3.01" ry="3.91"/><ellipse class="cls-5" cx="144.9" cy="99.09" rx="6.04" ry="5.67"/><ellipse class="cls-6" cx="113.51" cy="168.15" rx="6.85" ry="6.88"/><ellipse class="cls-7" cx="87.81" cy="259.45" rx="6.85" ry="6.76"/><ellipse class="cls-6" cx="78.11" cy="273" rx="2.85" ry="3.21"/><ellipse class="cls-8" cx="93.96" cy="202.64" rx="2.77" ry="2.73"/><ellipse class="cls-6" cx="86.02" cy="144.04" rx="3.94" ry="4.43"/><ellipse class="cls-6" cx="87.71" cy="126.87" rx="3.5" ry="3.93"/><ellipse class="cls-6" cx="99.86" cy="190.25" rx="3.53" ry="3.97"/><ellipse class="cls-6" cx="113.88" cy="271.35" rx="3.62" ry="4.07"/><ellipse class="cls-6" cx="95.19" cy="275.49" rx="2.97" ry="3.34"/><path class="cls-9" d="M127.28,129.48V167.6a1.24,1.24,0,0,1-.19.21l-.5-1c-.16-.31-.33-.62-.5-.92l-.52-.87c-.17-.28-.34-.56-.53-.83a30.3,30.3,0,0,0-25-14h-.16A29.45,29.45,0,0,0,77,162.08a34,34,0,0,0-3.72,6.11c0-.29,0-.58,0-.88V149.85c-1.44-15.66,9.54-27.8,25.72-29.18,2.1-.18,4.13-.55,6.15-.54h.59a30.14,30.14,0,0,1,21,8.8Z" transform="translate(0.47)"/><path class="cls-10" d="M220.23,142.84c0-.08-.06-.16-.08-.23-12.27-31.83-47.88-50.28-89.36-50.3V52.19C176,62.64,211.31,98.17,220.23,142.84Z" transform="translate(0.47)"/><path class="cls-11" d="M61,109.37l-.84.39.57-.29Z" transform="translate(0.47)"/><path class="cls-12" d="M128.79,167.87v47.06c-.81,0-1.62.06-2.45.06a57.92,57.92,0,0,1-14.74-1.89c-21.79-5.7-37.8-23.76-38.22-45.26a32.53,32.53,0,0,1,3.82-5.94,30.72,30.72,0,0,1,23.43-11.54h.17A31.51,31.51,0,0,1,126.49,164q.29.39.54.81c.18.27.36.56.53.84s.35.59.52.9l.51.94A2.14,2.14,0,0,1,128.79,167.87Z" transform="translate(0.47)"/><path class="cls-13" d="M232.25,156.92l-.06-.19" transform="translate(0.47)"/><path class="cls-14" d="M102.61,93.93" transform="translate(0.47)"/><ellipse class="cls-15" cx="95.37" cy="110.9" rx="0.74" ry="0.85"/><path class="cls-16" d="M109.44,111.27c-.35-.53-.75-1-1.06-1.6a9.63,9.63,0,0,1-.71-1.8l-1-3.7c-.16-.61-.34-1.23-.47-1.86a7.81,7.81,0,0,1-.08-1.93,16.79,16.79,0,0,0-.46-3.79,35.07,35.07,0,0,0-2.27-7.27c-1.15-2.3-2-4.73-3.3-6.92l0,0,1,1.63c.33.55.58,1.14.86,1.72l1.67,3.45a28.92,28.92,0,0,1,2.15,7.38,21.36,21.36,0,0,1,.41,3.82,7.91,7.91,0,0,0,.13,1.89c.15.62.37,1.22.55,1.84.8,2.42,1,5.06,2.59,7.15Z" transform="translate(0.47)"/><ellipse class="cls-17" cx="101.84" cy="91.1" rx="1.47" ry="1.5"/><ellipse class="cls-18" cx="106.77" cy="100.23" rx="1.47" ry="1.58"/><ellipse class="cls-19" cx="103.94" cy="94.54" rx="0.9" ry="1.04"/><ellipse class="cls-20" cx="100.48" cy="82.35" rx="1.05" ry="1.09"/><ellipse class="cls-19" cx="98.68" cy="84.43" rx="0.75" ry="0.87"/><ellipse class="cls-21" cx="103.17" cy="86.86" rx="0.8" ry="0.81"/><ellipse class="cls-19" cx="104.38" cy="90.18" rx="0.49" ry="0.57"/><ellipse class="cls-19" cx="104.59" cy="87.98" rx="0.43" ry="0.5"/><ellipse class="cls-19" cx="101.09" cy="85.74" rx="0.53" ry="0.61"/><ellipse class="cls-22" cx="111.68" cy="84.43" rx="0.75" ry="0.72"/><ellipse class="cls-19" cx="107.79" cy="93.26" rx="0.85" ry="0.88"/><ellipse class="cls-19" cx="105.36" cy="97.67" rx="0.52" ry="0.6"/><ellipse class="cls-19" cx="110.27" cy="88.96" rx="0.57" ry="0.66"/><ellipse class="cls-23" cx="104.6" cy="104.94" rx="0.85" ry="0.86"/><ellipse class="cls-19" cx="107.02" cy="108.51" rx="0.76" ry="0.88"/><ellipse class="cls-19" cx="114.06" cy="110.88" rx="0.56" ry="0.65"/><ellipse class="cls-19" cx="104.3" cy="108.64" rx="0.55" ry="0.63"/><ellipse class="cls-19" cx="107.83" cy="106.46" rx="0.45" ry="0.52"/><ellipse class="cls-19" cx="105.73" cy="110.25" rx="0.54" ry="0.62"/><ellipse class="cls-19" cx="110.01" cy="111.38" rx="0.44" ry="0.5"/><ellipse class="cls-19" cx="108.92" cy="109.59" rx="0.55" ry="0.64"/><ellipse class="cls-19" cx="104.51" cy="111.27" rx="0.53" ry="0.62"/><ellipse class="cls-19" cx="103.39" cy="106.67" rx="0.35" ry="0.41"/><ellipse class="cls-19" cx="106.09" cy="96.09" rx="0.44" ry="0.51"/><ellipse class="cls-19" cx="105.51" cy="106.99" rx="0.37" ry="0.43"/><ellipse class="cls-24" cx="122.04" cy="71.73" rx="1.3" ry="1.39"/><text class="cls-25" transform="translate(90.85 57.57) scale(1.03 1)">2014</text><path class="cls-26" d="M132.32,21.42a21.3,21.3,0,0,1-11.41,18.76,5,5,0,0,1-.69.36,23,23,0,0,1-2.42,1,.65.65,0,0,0-.17.08,20.36,20.36,0,0,1-5.27,1.13c-.69.06-1.4.1-2.12.1A22,22,0,0,1,88.71,26.33a20.31,20.31,0,0,1-.58-4.91A21.59,21.59,0,0,1,106,.42,22.61,22.61,0,0,1,110.24,0a22.4,22.4,0,0,1,15.64,6.3A21,21,0,0,1,132.32,21.42Z" transform="translate(0.47)"/><path class="cls-27" d="M97.41,33.81a10.63,10.63,0,0,1-21,2.42,10.21,10.21,0,0,1-.28-2.42,10.62,10.62,0,0,1,21.24,0Z" transform="translate(0.47)"/><text class="cls-28" transform="translate(81.91 43.17) rotate(-144.03) scale(1.03 1)">0</text><text class="cls-28" transform="translate(79.38 41.29) rotate(-130.29) scale(1.03 1)">1</text><text class="cls-28" transform="matrix(-0.49, -0.91, 0.88, -0.47, 77.94, 39.61)">1</text><text class="cls-28" transform="matrix(-0.24, -1, 0.97, -0.23, 76.84, 37.74)">0</text><text class="cls-29" transform="translate(99.49 26.04) scale(1.03 1)">Big</text><text class="cls-30" transform="translate(81.33 35.6) scale(1.03 1)">d<tspan class="cls-31" x="3.29" y="0">a</tspan><tspan x="6.27" y="0">ta</tspan></text><path class="cls-32" d="M73.61,31.77c-.15,0-.3-.39-.34-1.78a2.38,2.38,0,0,0,1.63-1.77,1.94,1.94,0,0,0-.31-1.46L74,26.18l.94-1.68a2.43,2.43,0,0,0,2-.15,2.2,2.2,0,0,0,1-1.3s0-.12,0-1.09l1.75-.73a2.42,2.42,0,0,0,1.85,1.15A2.21,2.21,0,0,0,83,22a9,9,0,0,0,.73-.86h0s1.52,0,1.76.52a.54.54,0,0,1,0,.31c-.08.55-.32,2.1-1,2.21a.81.81,0,0,1-.55-.18c-1.3-.76-3.35-.26-4.52.32a6,6,0,0,0-1.53,1.11,5.49,5.49,0,0,0-1.24,1.71,4.23,4.23,0,0,0-.45,1.59c-.09,1.13.39,1.36.11,1.9-.39.75-1.72,1-1.94,1a3.18,3.18,0,0,0-.47.07A1.69,1.69,0,0,1,73.61,31.77Z" transform="translate(0.47)"/><path class="cls-33" d="M101.9,93.36" transform="translate(0.47)"/><path class="cls-16" d="M121.53,71.2A14.64,14.64,0,0,0,114.71,76a27,27,0,0,0-3.87,7.51l-5.23,16.16a21.54,21.54,0,0,1-1.66,3.93,17.58,17.58,0,0,1-1.15,1.79,14.15,14.15,0,0,1-1.31,1.69,14.33,14.33,0,0,1-3.24,2.77,5.49,5.49,0,0,1-2,.79,2.06,2.06,0,0,1-1.1-.13l-.26-.1c-.14-.38.25-.2.13-.23l.07,0,.13,0,.5.16a15.1,15.1,0,0,0,4.12.84,6.21,6.21,0,0,0,3.92-1.14,6.49,6.49,0,0,0,2.5-3.25,9.21,9.21,0,0,0,.38-4.14,12.14,12.14,0,0,0-.46-2,6.13,6.13,0,0,0-.89-1.88,41,41,0,0,1-2.11-3.7c-1.33-2.5-2.86-4.88-4.18-7.39a18.65,18.65,0,0,1-2.26-8.15,9,9,0,0,1,.91-4.14,9.1,9.1,0,0,1,2.82-3.16l.86-.63.41-.32c.12-.11.25-.26.19-.38s-.62-.19-1-.2-.71,0-1.06.06a42.38,42.38,0,0,0-4.18.7,25.73,25.73,0,0,1-4.2.69,6.39,6.39,0,0,1-4.09-1,.48.48,0,0,1-.12-.1c0-.16.15-.07.13-.08l.06,0,.25.1.48.24c.31.16.63.32.94.5.62.34,1.23.7,1.82,1.09a34,34,0,0,1,3.43,2.52,19.47,19.47,0,0,1,3,3,11.67,11.67,0,0,1,2,3.79c.35,1.38.59,2.77.81,4.17s.49,2.8.61,4.21c.21,2.84.25,5.66.4,8.49a37.13,37.13,0,0,0,.47,4.21,14.08,14.08,0,0,0,1.19,4,7.58,7.58,0,0,0,1.22,1.69,4,4,0,0,0,1.7,1.12,12.06,12.06,0,0,0,4.15.47,14.51,14.51,0,0,0,2.09-.21c.29-.06.87-.23.51-.08l-1-.07a8.2,8.2,0,0,1-4-1.37l-1.75-1.21a6.11,6.11,0,0,1-1.62-1.43,7.72,7.72,0,0,1-.92-2,18.42,18.42,0,0,1-.59-2,17.37,17.37,0,0,1-.47-4.25,35.15,35.15,0,0,1,.38-4.24c.21-1.41.45-2.8.61-4.21l.24-2.09a10.56,10.56,0,0,0-.09-2.1c-.38-2.74-1.61-5.55-4.08-7A6.68,6.68,0,0,1,97.58,77c-.44-.57-.81-1.17-1.22-1.75s-.77-1.2-1.13-1.81c-.18-.3-.35-.62-.54-.9s-.21-.27-.26-.24a.59.59,0,0,0-.27.29,5.81,5.81,0,0,0-.48,2,10.43,10.43,0,0,0,0,2.09,9.75,9.75,0,0,0,1.3,4,11,11,0,0,0,2.7,3.19A12.1,12.1,0,0,0,99.43,85c.61.34,1.28.56,1.92.89a11.72,11.72,0,0,1,1.77,1.2c.56.44,1.11.88,1.65,1.35a5.89,5.89,0,0,1,1.4,1.62,4.49,4.49,0,0,1,.58,2.06,3.24,3.24,0,0,1-.13,1.07c-.11.35-.26.67-.38,1a9.54,9.54,0,0,0-.42,2.06c-.13,1.4-.14,2.82-.18,4.23a14.68,14.68,0,0,1-.53,4.22,11.28,11.28,0,0,1-.94,1.91,12.32,12.32,0,0,1-1.17,1.77,7.14,7.14,0,0,1-3.74,1.93,8.46,8.46,0,0,1-4.21-.13v0a8.38,8.38,0,0,0,4.19.11,7,7,0,0,0,3.69-1.93,10.93,10.93,0,0,0,1.16-1.76,11.47,11.47,0,0,0,.92-1.9,14.37,14.37,0,0,0,.5-4.19c0-1.41,0-2.83.17-4.25a9.43,9.43,0,0,1,.41-2.09,4,4,0,0,0-.07-4,5.85,5.85,0,0,0-1.38-1.56c-.53-.46-1.08-.9-1.64-1.33a11.42,11.42,0,0,0-1.75-1.18c-.62-.31-1.3-.53-1.93-.88A11.66,11.66,0,0,1,97.54,84a11.37,11.37,0,0,1-2.78-3.24,9.77,9.77,0,0,1-.85-8.3.78.78,0,0,1,.47-.43.38.38,0,0,1,.36.12,1.37,1.37,0,0,1,.19.23c.2.3.37.61.55.91.37.61.72,1.22,1.13,1.79s.78,1.18,1.2,1.74a6.54,6.54,0,0,0,1.53,1.39,7.81,7.81,0,0,1,2.92,3.11,12.18,12.18,0,0,1,1.29,4.07,10.3,10.3,0,0,1,.08,2.15l-.23,2.12c-.17,1.41-.41,2.81-.62,4.21a35,35,0,0,0-.38,4.2,16.8,16.8,0,0,0,.46,4.18,19.68,19.68,0,0,0,.58,2,7.7,7.7,0,0,0,.88,1.88,5.86,5.86,0,0,0,1.56,1.36l1.74,1.2a7.89,7.89,0,0,0,3.91,1.33l1.06.08.15,0,.09,0s.14.12.12.18-.13.15-.17.2l-.14.06a5.29,5.29,0,0,1-.54.13A15.21,15.21,0,0,1,110,111a12.5,12.5,0,0,1-4.25-.48,4.3,4.3,0,0,1-1.8-1.2,7.43,7.43,0,0,1-1.26-1.74,14.86,14.86,0,0,1-1.21-4.1,37.62,37.62,0,0,1-.45-4.24c-.14-2.82-.17-5.66-.38-8.48-.11-1.41-.4-2.8-.59-4.2s-.46-2.8-.8-4.16a11.55,11.55,0,0,0-1.9-3.73,18.73,18.73,0,0,0-3-3,33.29,33.29,0,0,0-3.4-2.53c-.59-.38-1.2-.75-1.82-1.09-.3-.18-.62-.34-.93-.5l-.48-.23-.24-.11,0,0c-.06,0,0,0,0-.11l.09.07a6.26,6.26,0,0,0,4,.94,24.94,24.94,0,0,0,4.18-.68c1.39-.27,2.78-.54,4.19-.69a9.45,9.45,0,0,1,1.07-.07c.34,0,.74-.06,1,.25.09.23-.1.39-.22.51a4.35,4.35,0,0,1-.42.33l-.86.63a9.15,9.15,0,0,0-2.77,3.13,8.83,8.83,0,0,0-.88,4.08,18.5,18.5,0,0,0,2.27,8.07c1.32,2.5,2.87,4.88,4.21,7.38a39.18,39.18,0,0,0,2.11,3.67,6.65,6.65,0,0,1,.92,1.94,11.39,11.39,0,0,1,.47,2.08,9.42,9.42,0,0,1-.37,4.25,6.82,6.82,0,0,1-2.58,3.38,6.48,6.48,0,0,1-4.08,1.19,14.47,14.47,0,0,1-4.18-.86l-.51-.16-.12,0-.06,0c-.14,0,.14.1,0-.23l.23.09a1.83,1.83,0,0,0,1,.12,5.27,5.27,0,0,0,1.92-.75,14.08,14.08,0,0,0,3.2-2.72,12.35,12.35,0,0,0,1.3-1.66,16.27,16.27,0,0,0,1.15-1.77,21.08,21.08,0,0,0,1.66-3.88l5.3-16.15A27.31,27.31,0,0,1,114.66,76a14.71,14.71,0,0,1,6.86-4.83Z" transform="translate(0.47)"/><path class="cls-16" d="M108.73,110.7c-.35-.53-.76-1-1.07-1.61a9.63,9.63,0,0,1-.71-1.8l-1-3.69c-.16-.62-.33-1.23-.47-1.87a7.81,7.81,0,0,1-.08-1.93,16.64,16.64,0,0,0-.46-3.78,34,34,0,0,0-2.27-7.28c-1.14-2.3-2-4.73-3.29-6.92h0l1,1.62c.32.56.57,1.15.86,1.72l1.66,3.46A28.92,28.92,0,0,1,105.07,96a21.36,21.36,0,0,1,.41,3.82,8,8,0,0,0,.14,1.89c.14.61.36,1.22.54,1.83.8,2.43,1,5.06,2.59,7.15Z" transform="translate(0.47)"/><path class="cls-34" d="M96.62,78c.32.11.66.23,1,.38l.11,0c.24.11.49.22.73.35l.46.25a12.57,12.57,0,0,1,1.16.73" transform="translate(0.47)"/><path class="cls-16" d="M96.62,78a4.7,4.7,0,0,1,1,.18,8,8,0,0,1,.92.36,5.75,5.75,0,0,1,1.56,1.22A12,12,0,0,1,98.3,79,14.28,14.28,0,0,1,96.62,78Z" transform="translate(0.47)"/><ellipse class="cls-17" cx="101.12" cy="90.53" rx="1.47" ry="1.5"/><ellipse class="cls-18" cx="106.05" cy="99.66" rx="1.47" ry="1.58"/><ellipse class="cls-19" cx="103.22" cy="93.96" rx="0.9" ry="1.04"/><ellipse class="cls-35" cx="95.46" cy="71.95" rx="1.59" ry="1.61"/><ellipse class="cls-20" cx="99.76" cy="81.77" rx="1.05" ry="1.09"/><ellipse class="cls-36" cx="87.83" cy="71.11" rx="0.8" ry="0.84"/><ellipse class="cls-19" cx="97.96" cy="83.86" rx="0.75" ry="0.87"/><ellipse class="cls-19" cx="102.46" cy="70.97" rx="0.7" ry="0.81"/><ellipse class="cls-37" cx="98.42" cy="76.66" rx="0.69" ry="0.71"/><ellipse class="cls-19" cx="98.1" cy="78.37" rx="0.58" ry="0.68"/><ellipse class="cls-21" cx="102.46" cy="86.29" rx="0.8" ry="0.81"/><ellipse class="cls-19" cx="103.66" cy="89.6" rx="0.49" ry="0.57"/><ellipse class="cls-19" cx="103.87" cy="87.41" rx="0.43" ry="0.5"/><ellipse class="cls-19" cx="100.38" cy="85.16" rx="0.53" ry="0.61"/><path class="cls-16" d="M115.39,71.55a3.33,3.33,0,0,1,1,2.73,10.56,10.56,0,0,1-1.25,2.7,46,46,0,0,1-3.25,4.92,15.15,15.15,0,0,0-1.55,2.48L109.09,87c-.85,1.76-1.65,3.56-2.53,5.32h0c.35-.92.72-1.83,1.1-2.74s.73-1.82,1.18-2.7l1.3-2.66a13.82,13.82,0,0,1,1.66-2.44c.6-.77,1.2-1.55,1.75-2.37A23,23,0,0,0,115,76.86a12.71,12.71,0,0,0,1.23-2.62,3.41,3.41,0,0,0-.81-2.67Z" transform="translate(0.47)"/><path class="cls-16" d="M103.33,104a9,9,0,0,1-.25-3.14,13,13,0,0,1,.82-3,37.36,37.36,0,0,1,2.88-5.59c1.06-1.8,2-3.7,3.23-5.4s2.38-3.46,3.45-5.25a10.84,10.84,0,0,0,.73-1.39,11.52,11.52,0,0,0,.61-1.44,5.66,5.66,0,0,0,.34-3A5.24,5.24,0,0,0,113.72,73,5.53,5.53,0,0,0,111,71.62c-.26-.07-.5-.11-.78-.21a.29.29,0,0,1-.21-.3c.06-.17.15-.18.21-.23a1.66,1.66,0,0,1,.41-.14,6.65,6.65,0,0,1,1.59-.19,13.9,13.9,0,0,1,3.15.3,14.28,14.28,0,0,0,3.06.6,9,9,0,0,0,3.08-.47v0a8.56,8.56,0,0,1-3.09.58,14,14,0,0,1-3.1-.53,14,14,0,0,0-3.1-.23,8.54,8.54,0,0,0-1.53.19,1.7,1.7,0,0,0-.34.12s-.08.07-.06,0,0,0,0,0,.48.13.73.2a5.7,5.7,0,0,1,2.81,1.49,5.54,5.54,0,0,1,1.49,2.81,5.61,5.61,0,0,1-.4,3.14,11.69,11.69,0,0,1-.65,1.45,10.28,10.28,0,0,1-.76,1.38c-1.09,1.8-2.35,3.47-3.49,5.23S108,90.46,107,92.29a52.36,52.36,0,0,0-2.89,5.56,12.61,12.61,0,0,0-.86,3,9.29,9.29,0,0,0,.13,3.11Z" transform="translate(0.47)"/><ellipse class="cls-22" cx="110.97" cy="83.86" rx="0.75" ry="0.72"/><ellipse class="cls-19" cx="107.07" cy="92.69" rx="0.85" ry="0.88"/><ellipse class="cls-19" cx="104.65" cy="97.1" rx="0.52" ry="0.6"/><ellipse class="cls-19" cx="109.55" cy="88.38" rx="0.57" ry="0.66"/><ellipse class="cls-23" cx="103.88" cy="104.36" rx="0.85" ry="0.86"/><ellipse class="cls-19" cx="105.38" cy="95.51" rx="0.44" ry="0.51"/><ellipse class="cls-38" cx="115.77" cy="71.57" rx="0.9" ry="0.92"/><ellipse class="cls-39" cx="116.76" cy="74.28" rx="0.75" ry="0.82"/><ellipse class="cls-19" cx="110.66" cy="71.15" rx="0.54" ry="0.62"/><ellipse class="cls-19" cx="115.87" cy="76.44" rx="0.28" ry="0.32"/><ellipse class="cls-19" cx="115.73" cy="75.38" rx="0.41" ry="0.48"/><g class="cls-40"><path class="cls-41" d="M128.84,51.26v78l-.51-.48,0,0a3.08,3.08,0,0,0-.27-.24,31.19,31.19,0,0,0-17.57-8,30.43,30.43,0,0,0-3.72-.27h-.6a34.79,34.79,0,0,0-6.32.53c-12.42,2.13-21.91,10.42-25.17,20.61v0c-.24.76-.46,1.54-.63,2.32a.08.08,0,0,0,0,0,25,25,0,0,0-.59,5.4V51.26c1.35-.31,2.72-.61,4.09-.87a123,123,0,0,1,19.33-2.21l1.61,0c.89,0,1.78,0,2.68,0s1.79,0,2.68,0l1.61,0c1.69.06,3.37.15,5,.29A120.86,120.86,0,0,1,128.84,51.26Z" transform="translate(0.47)"/><path class="cls-42" d="M129,51.16l.65,78.07V131l-1.3-1.25-.4-.39-.19-.17-.16-.15,0,0a30.07,30.07,0,0,0-13.78-7.16,35.16,35.16,0,0,0-15.58.11,33,33,0,0,0-13.86,6.94,27.74,27.74,0,0,0-8.54,12.71l0-.35a1.21,1.21,0,0,1-.35.84l.29-.48-.58,2.22-.11.29a.91.91,0,0,0,.12-.49l0,.25a23.53,23.53,0,0,0-.54,5.15H72.22l-.33-48.9c-.07-8.15,0-16.3,0-24.45s.16-16.3.24-24.45v-1l1-.21a123.84,123.84,0,0,1,13.93-2.22,122.39,122.39,0,0,1,14.07-.53c2.33,0,4.69.15,7,.35s4.66.42,7,.74,4.63.71,6.92,1.17c1.15.23,2.29.47,3.42.74S127.72,50.78,129,51.16Zm-.23.19c-1-.13-2.21-.39-3.35-.57l-3.44-.54q-3.45-.5-6.92-.8c-2.31-.2-4.63-.31-7-.38s-4.61-.13-6.93-.09a122.68,122.68,0,0,0-13.82,1A132.94,132.94,0,0,0,73.7,52.5l1-1.24c.08,8.15.21,16.3.24,24.45s.08,16.3,0,24.45l-.33,48.9H72.22a26.12,26.12,0,0,1,.66-5.65l0,.25a1.26,1.26,0,0,1,.14-.57l-.1.28.66-2.41.29-.48a1.09,1.09,0,0,0-.33.8l0-.35a30,30,0,0,1,9.37-13.61,35,35,0,0,1,14.79-7.2,36.76,36.76,0,0,1,16.4.08,31.68,31.68,0,0,1,14.44,7.71l-.06,0,.26.22.21.21.4.39-1.29.54Z" transform="translate(0.47)"/></g><text class="cls-25" transform="translate(91.05 59.83) scale(1.03 1)">2014</text><text class="cls-43" transform="translate(87.64 75.57) scale(1.03 1)">In<tspan class="cls-44" x="5.99" y="0">f</tspan><tspan x="8.23" y="0">erenc</tspan><tspan class="cls-45" x="24.02" y="0">e</tspan><tspan x="26.95" y="0">,</tspan><tspan x="-5.28" y="6" xml:space="preserve"> In</tspan><tspan class="cls-44" x="2.43" y="6">f</tspan><tspan x="4.67" y="6">orm</tspan><tspan class="cls-44" x="16.18" y="6">a</tspan><tspan x="19.42" y="6">tion, </tspan><tspan x="-11.27" y="12">&amp; Decision Group </tspan></text><path class="cls-16" d="M111.53,97.1a6.18,6.18,0,0,0-2.7,1.61,9.05,9.05,0,0,0-1.66,2.68l-2.24,6a6.87,6.87,0,0,1-1.81,2.61,5.37,5.37,0,0,1-1.32.89,2,2,0,0,1-.79.19.63.63,0,0,1-.43-.14c.21,0,.28,0,.43.06a4.1,4.1,0,0,0,3.06,0,2.58,2.58,0,0,0,1.12-1,2.78,2.78,0,0,0,.25-1.53,3.11,3.11,0,0,0-.53-1.45,13.88,13.88,0,0,1-.89-1.32c-.55-.91-1.19-1.75-1.75-2.66a5.8,5.8,0,0,1-.91-3,3,3,0,0,1,.51-1.5,4.28,4.28,0,0,1,1.21-1,3.7,3.7,0,0,0,.33-.21s.11-.1.08-.13-.11,0-.17-.06a4.17,4.17,0,0,0-.79,0c-.53.06-1,.14-1.57.23a5.81,5.81,0,0,1-3.15.05l-.18-.09a.39.39,0,0,1-.1-.08l0,0c.07,0,0,0,.08,0l.37.15c.24.1.48.22.71.34a15.42,15.42,0,0,1,1.37.81,6.17,6.17,0,0,1,2.25,2.23,14.86,14.86,0,0,1,.72,3.1c.13,1,.13,2.11.2,3.17a10.36,10.36,0,0,0,.19,1.57,4,4,0,0,0,.54,1.47,2,2,0,0,0,1.17,1,5.41,5.41,0,0,0,1.56.16,7.13,7.13,0,0,0,.79,0,2.32,2.32,0,0,0,.38-.06l.08,0s0,0,0,0h0l-.19,0a4.43,4.43,0,0,1-1.57-.31,15.52,15.52,0,0,1-1.38-.8,2.38,2.38,0,0,1-.87-1.34,6.17,6.17,0,0,1-.18-3.16l.26-1.57a5.13,5.13,0,0,0,.09-1.56,3.2,3.2,0,0,0-1.67-2.5,3.62,3.62,0,0,1-1.15-1.12,7.52,7.52,0,0,1-.47-.64c-.15-.17-.3-.59-.45-.34a3,3,0,0,0,.39,3,4.8,4.8,0,0,0,2.56,1.75,9,9,0,0,1,1.34.86,1.75,1.75,0,0,1,.87,1.3,1.59,1.59,0,0,1-.21.77,2.81,2.81,0,0,0-.18.76c0,.53,0,1.06-.07,1.59a3.63,3.63,0,0,1-1.27,2.81,4,4,0,0,1-3.07.47h0a3.93,3.93,0,0,0,3-.48,3.57,3.57,0,0,0,1.24-2.79c0-.53,0-1.06.07-1.59a3,3,0,0,1,.18-.78,1.46,1.46,0,0,0,.2-.75,1.72,1.72,0,0,0-.85-1.25,9.28,9.28,0,0,0-1.33-.84,5,5,0,0,1-2.61-1.77,3,3,0,0,1-.39-3.06.3.3,0,0,1,.2-.13c.11,0,.15.09.19.14l.23.33c.15.21.31.43.47.63a3.5,3.5,0,0,0,1.11,1.09,3.33,3.33,0,0,1,1.73,2.58,5.06,5.06,0,0,1-.09,1.6l-.27,1.56a6.11,6.11,0,0,0,.19,3.12,2.26,2.26,0,0,0,.81,1.28,15.65,15.65,0,0,0,1.37.79,4.22,4.22,0,0,0,1.53.31h.21l.06,0c.08,0,0,.14,0,.13l-.1,0-.4.06a7.16,7.16,0,0,1-.8,0,5.69,5.69,0,0,1-1.59-.16,2.16,2.16,0,0,1-1.23-1,4.1,4.1,0,0,1-.54-1.5,10.49,10.49,0,0,1-.19-1.58c-.07-1.06-.06-2.13-.19-3.17a14.5,14.5,0,0,0-.7-3.08A6.11,6.11,0,0,0,100,98.42a11.61,11.61,0,0,0-1.36-.81l-.71-.35-.37-.15s.17.06.27.11a5.9,5.9,0,0,0,3.12,0c.53-.09,1-.18,1.58-.23a3.49,3.49,0,0,1,.79,0,.27.27,0,0,1,.2.08c0,.08,0,.14-.08.18l-.34.22a3.89,3.89,0,0,0-1.19,1,2.84,2.84,0,0,0-.49,1.47,5.61,5.61,0,0,0,.91,3c.55.9,1.2,1.75,1.75,2.65.29.44.56.9.89,1.31a3.11,3.11,0,0,1,.55,1.49,2.78,2.78,0,0,1-.25,1.58,2.6,2.6,0,0,1-1.16,1.09,4.18,4.18,0,0,1-3.13,0l-.19-.06-.09,0,0,0s-.07,0,0,0,.11,0,.16,0l.18,0a1.8,1.8,0,0,0,.75-.18,5.47,5.47,0,0,0,1.31-.88,6.89,6.89,0,0,0,1.8-2.56l2.27-5.94a8.83,8.83,0,0,1,1.68-2.69,6.08,6.08,0,0,1,2.71-1.6Z" transform="translate(0.47)"/><path class="cls-16" d="M106.28,111a6,6,0,0,1-1.14-2.49c-.07-.22-.14-.44-.2-.66a2.74,2.74,0,0,1,0-.7,5.19,5.19,0,0,0-.2-1.35,10.16,10.16,0,0,0-.94-2.57,26.92,26.92,0,0,0-1.34-2.41h0a17.24,17.24,0,0,1,1.43,2.36,9.08,9.08,0,0,1,.9,2.61,6.44,6.44,0,0,1,.18,1.37,2.91,2.91,0,0,0,.27,1.33,7.39,7.39,0,0,0,1.07,2.51Z" transform="translate(0.47)"/><path class="cls-34" d="M101.31,99.51a3.31,3.31,0,0,1,.41.14h0l.3.13a.82.82,0,0,1,.19.09,4.23,4.23,0,0,1,.47.25" transform="translate(0.47)"/><path class="cls-16" d="M101.31,99.51a3.32,3.32,0,0,1,.77.18,3.23,3.23,0,0,1,.65.44,7.66,7.66,0,0,1-.72-.27C101.78,99.72,101.54,99.66,101.31,99.51Z" transform="translate(0.47)"/><ellipse class="cls-46" cx="103.44" cy="103.92" rx="0.6" ry="0.53"/><ellipse class="cls-47" cx="101.11" cy="97.37" rx="0.65" ry="0.57"/><ellipse class="cls-48" cx="102.88" cy="100.83" rx="0.43" ry="0.38"/><ellipse class="cls-49" cx="97.98" cy="97.07" rx="0.35" ry="0.3"/><circle class="cls-50" cx="102.14" cy="101.57" r="0.31"/><circle class="cls-50" cx="103.99" cy="97.02" r="0.29"/><ellipse class="cls-51" cx="102.33" cy="99.03" rx="0.28" ry="0.25"/><circle class="cls-50" cx="102.2" cy="99.63" r="0.24"/><ellipse class="cls-52" cx="103.98" cy="102.42" rx="0.33" ry="0.29"/><circle class="cls-50" cx="104.48" cy="103.59" r="0.2"/><circle class="cls-50" cx="104.56" cy="102.82" r="0.18"/><circle class="cls-50" cx="103.13" cy="102.03" r="0.21"/><path class="cls-16" d="M109,97.23a1,1,0,0,1,.41,1,3.18,3.18,0,0,1-.52,1,13.59,13.59,0,0,1-1.31,1.71,8.78,8.78,0,0,0-1.16,1.8c-.35.63-.68,1.27-1,1.89h0c.31-.65.6-1.31,1-1.94a7.2,7.2,0,0,1,1.2-1.79,8.32,8.32,0,0,0,1.29-1.72,5.27,5.27,0,0,0,.52-.92,1.15,1.15,0,0,0-.34-1Z" transform="translate(0.47)"/><path class="cls-16" d="M104.07,108.66a2.66,2.66,0,0,1-.09-1.19,4.93,4.93,0,0,1,.38-1.12c.41-.68.8-1.38,1.24-2,.79-1.38,1.94-2.51,2.8-3.83a2.19,2.19,0,0,0,.38-2.18,1.9,1.9,0,0,0-.81-.8,2.52,2.52,0,0,0-.54-.21l-.28-.06c-.11,0-.18,0-.32-.14,1.62-.73,3.16.54,4.71-.07h0a4.09,4.09,0,0,1-2.35,0A6.62,6.62,0,0,0,108,97a5.82,5.82,0,0,0-.59,0,3.06,3.06,0,0,0-.5.08,3.8,3.8,0,0,1,1.08.34,2,2,0,0,1,.85.85,1.52,1.52,0,0,1,.11,1.18,5.08,5.08,0,0,1-.53,1.07,45.15,45.15,0,0,0-2.77,3.85c-.43.66-.83,1.34-1.25,2a3.11,3.11,0,0,0-.35,2.27Z" transform="translate(0.47)"/><ellipse class="cls-53" cx="107.48" cy="101.57" rx="0.31" ry="0.26"/><ellipse class="cls-50" cx="105.88" cy="104.68" rx="0.35" ry="0.31"/><circle class="cls-50" cx="106.89" cy="103.16" r="0.23"/><ellipse class="cls-54" cx="109.45" cy="97.24" rx="0.37" ry="0.32"/><circle class="cls-50" cx="107.35" cy="97.09" r="0.22"/><circle class="cls-50" cx="109.49" cy="98.95" r="0.11"/><circle class="cls-50" cx="109.43" cy="98.58" r="0.17"/><path class="cls-55" d="M222.49,165.64A112.88,112.88,0,0,1,218,197.11c-11.63,40.32-45.1,71.74-87.2,81.47a121.8,121.8,0,0,1-18.37,2.8q-4.62.35-9.33.35a123,123,0,0,1-24.68-2.49,95.39,95.39,0,0,0,34-1.4c40.47-9,70.61-43.81,70.61-85.32a84.93,84.93,0,0,0-18.86-53.29,91.07,91.07,0,0,0-33.38-25.87V92.83c41.48,0,77.09,18.46,89.36,50.29a1.55,1.55,0,0,0,.08.23A113.09,113.09,0,0,1,222.49,165.64Z" transform="translate(0.47)"/><path class="cls-16" d="M222.49,165.64a112.26,112.26,0,0,1-11.89,50.61,120.25,120.25,0,0,1-14.18,22,121,121,0,0,1-65.86,40.65,123.24,123.24,0,0,1-12.94,2.25c-4.34.58-8.73.62-13.1.81a119.43,119.43,0,0,1-26.13-2.39l.12-.67A95.88,95.88,0,0,0,110,278a94.27,94.27,0,0,0,29.39-11.25,88.81,88.81,0,0,0,39.05-48,84.19,84.19,0,0,0-3.53-61.64,87.83,87.83,0,0,0-18.18-25.69,91.48,91.48,0,0,0-26-17.83l-.14-.07v-.16l0-20.53v-.21h.21A132.22,132.22,0,0,1,158,95.51a106.88,106.88,0,0,1,25.72,9,82.61,82.61,0,0,1,22,16,67,67,0,0,1,14.65,22.83h0A113.5,113.5,0,0,1,222.49,165.64Zm0,0a114.23,114.23,0,0,0-2.24-22.28h0a67,67,0,0,0-14.7-22.75,81.86,81.86,0,0,0-22-15.89,106.2,106.2,0,0,0-25.68-8.89,131.52,131.52,0,0,0-27.06-2.79l.22-.22,0,20.53-.14-.22A92,92,0,0,1,157.14,131a88.59,88.59,0,0,1,18.4,25.82A84.92,84.92,0,0,1,179.29,219,86.58,86.58,0,0,1,164,246.86a90.65,90.65,0,0,1-24.16,20.62,94.46,94.46,0,0,1-29.69,11.25,96.3,96.3,0,0,1-31.73.85l.12-.67a118.64,118.64,0,0,0,26,2.47c4.35-.18,8.72-.2,13-.77a120.13,120.13,0,0,0,59.84-24.38,121.34,121.34,0,0,0,18.82-18.13,118.88,118.88,0,0,0,14.23-21.93A112.19,112.19,0,0,0,222.49,165.64Z" transform="translate(0.47)"/></svg>