<svg xmlns="http://www.w3.org/2000/svg" viewBox="0 0 767.56 599.58"><defs><style>.cls-1{isolation:isolate;}.cls-2{fill:#fffefe;}.cls-3,.cls-6{fill:#fff;}.cls-4{fill:#e6e7e8;}.cls-5{fill:#84d1c9;}.cls-6{mix-blend-mode:soft-light;}.cls-7{fill:#dcddde;}.cls-8{fill:#f1f2f2;}.cls-9{fill:#ededee;}.cls-15,.cls-17,.cls-26,.cls-44,.cls-9{mix-blend-mode:multiply;}.cls-10{fill:#42404d;}.cls-11{fill:#bcbcbc;}.cls-12{fill:#845642;opacity:0.3;}.cls-13{fill:#74a889;}.cls-14{fill:#4b1910;}.cls-15,.cls-18{fill:#9bad23;}.cls-15,.cls-17,.cls-44{opacity:0.5;}.cls-16{fill:#83c49e;}.cls-19{fill:#68927a;}.cls-20{fill:#738278;}.cls-21{fill:#427255;}.cls-22{fill:#5d9b73;}.cls-23{fill:#f8ba3e;}.cls-24,.cls-44{fill:#130f4c;}.cls-25{fill:#ff876d;}.cls-26{fill:#ef9595;opacity:0.6;}.cls-27{fill:#ff556f;}.cls-28{fill:#545354;}.cls-29{fill:#272825;}.cls-30{fill:#131347;}.cls-31{fill:#2f54a4;}.cls-32{fill:#353334;}.cls-33{fill:#e45133;}.cls-34{fill:#f1f4c5;}.cls-35{fill:#b93722;}.cls-36{fill:#151919;}.cls-37{fill:#12083f;}.cls-38{fill:#228a8d;}.cls-39{fill:#eec92f;}.cls-40{fill:#2c2d2a;}.cls-41{fill:#40413d;}.cls-42{fill:#ce4836;}.cls-43{fill:#e8563a;}.cls-45{fill:#150735;}.cls-46{fill:#cdede7;}.cls-47{fill:#2d0c3a;}.cls-48{fill:#ffd153;}.cls-49{fill:none;}</style></defs><g class="cls-1"><g id="Layer_1" data-name="Layer 1"><rect class="cls-2" x="56.25" y="525.12" width="595.28" height="5.64"/><polygon class="cls-2" points="157.59 599.58 292.03 465.14 289.2 462.3 151.92 599.58 157.59 599.58"/><polygon class="cls-2" points="544.35 599.58 409.91 465.14 412.74 462.3 550.02 599.58 544.35 599.58"/><rect class="cls-3" x="584.58" y="311.27" width="120.98" height="162.06"/><rect class="cls-4" x="582.69" y="311.27" width="1.89" height="162.06"/><rect class="cls-4" x="594.03" y="326.95" width="22.68" height="41.82"/><path class="cls-5" d="M539.58,331.49v32.74c0,1.06.62,1.92,1.39,1.92h16.3c.77,0,1.4-.86,1.4-1.92V331.49c0-1.06-.63-1.93-1.4-1.93H541C540.2,329.56,539.58,330.43,539.58,331.49Z" transform="translate(56.25)"/><polygon class="cls-6" points="604.66 366.15 614.92 349.35 614.92 342.17 600.28 366.15 604.66 366.15"/><polygon class="cls-6" points="611 366.15 614.92 359.73 614.92 354.94 608.08 366.15 611 366.15"/><rect class="cls-4" x="620.49" y="326.95" width="22.68" height="41.82"/><path class="cls-5" d="M566.05,331.49v32.74c0,1.06.62,1.92,1.39,1.92h16.3c.77,0,1.39-.86,1.39-1.92V331.49c0-1.06-.62-1.93-1.39-1.93h-16.3C566.67,329.56,566.05,330.43,566.05,331.49Z" transform="translate(56.25)"/><polygon class="cls-6" points="631.13 366.15 641.38 349.35 641.38 342.17 626.75 366.15 631.13 366.15"/><polygon class="cls-6" points="637.46 366.15 641.38 359.73 641.38 354.94 634.54 366.15 637.46 366.15"/><rect class="cls-4" x="646.96" y="326.95" width="22.68" height="41.82"/><path class="cls-5" d="M592.51,331.49v32.74c0,1.06.62,1.92,1.4,1.92H610.2c.77,0,1.4-.86,1.4-1.92V331.49c0-1.06-.63-1.93-1.4-1.93H593.91C593.13,329.56,592.51,330.43,592.51,331.49Z" transform="translate(56.25)"/><polygon class="cls-6" points="657.6 366.15 667.85 349.35 667.85 342.17 653.21 366.15 657.6 366.15"/><polygon class="cls-6" points="663.93 366.15 667.85 359.73 667.85 354.94 661 366.15 663.93 366.15"/><rect class="cls-4" x="673.42" y="326.95" width="22.68" height="41.82"/><path class="cls-5" d="M619,331.49v32.74c0,1.06.63,1.92,1.4,1.92h16.3c.77,0,1.39-.86,1.39-1.92V331.49c0-1.06-.62-1.93-1.39-1.93h-16.3C619.6,329.56,619,330.43,619,331.49Z" transform="translate(56.25)"/><polygon class="cls-6" points="684.06 366.15 694.31 349.35 694.31 342.17 679.68 366.15 684.06 366.15"/><polygon class="cls-6" points="690.39 366.15 694.31 359.73 694.31 354.94 687.47 366.15 690.39 366.15"/><rect class="cls-7" x="590.25" y="371.38" width="109.64" height="2.62"/><rect class="cls-8" x="590.25" y="368.77" width="109.64" height="2.61"/><rect class="cls-4" x="594.03" y="387.07" width="22.68" height="41.82"/><path class="cls-5" d="M539.58,391.61v32.74c0,1.06.62,1.93,1.39,1.93h16.3c.77,0,1.4-.87,1.4-1.93V391.61c0-1.06-.63-1.93-1.4-1.93H541C540.2,389.68,539.58,390.55,539.58,391.61Z" transform="translate(56.25)"/><polygon class="cls-6" points="604.66 426.27 614.92 409.47 614.92 402.28 600.28 426.27 604.66 426.27"/><polygon class="cls-6" points="611 426.27 614.92 419.85 614.92 415.06 608.08 426.27 611 426.27"/><rect class="cls-4" x="620.49" y="387.07" width="22.68" height="41.82"/><path class="cls-5" d="M566.05,391.61v32.74c0,1.06.62,1.93,1.39,1.93h16.3c.77,0,1.39-.87,1.39-1.93V391.61c0-1.06-.62-1.93-1.39-1.93h-16.3C566.67,389.68,566.05,390.55,566.05,391.61Z" transform="translate(56.25)"/><polygon class="cls-6" points="631.13 426.27 641.38 409.47 641.38 402.28 626.75 426.27 631.13 426.27"/><polygon class="cls-6" points="637.46 426.27 641.38 419.85 641.38 415.06 634.54 426.27 637.46 426.27"/><rect class="cls-4" x="646.96" y="387.07" width="22.68" height="41.82"/><path class="cls-5" d="M592.51,391.61v32.74c0,1.06.62,1.93,1.4,1.93H610.2c.77,0,1.4-.87,1.4-1.93V391.61c0-1.06-.63-1.93-1.4-1.93H593.91C593.13,389.68,592.51,390.55,592.51,391.61Z" transform="translate(56.25)"/><polygon class="cls-6" points="657.6 426.27 667.85 409.47 667.85 402.28 653.21 426.27 657.6 426.27"/><polygon class="cls-6" points="663.93 426.27 667.85 419.85 667.85 415.06 661 426.27 663.93 426.27"/><rect class="cls-4" x="673.42" y="387.07" width="22.68" height="41.82"/><path class="cls-5" d="M619,391.61v32.74c0,1.06.63,1.93,1.4,1.93h16.3c.77,0,1.39-.87,1.39-1.93V391.61c0-1.06-.62-1.93-1.39-1.93h-16.3C619.6,389.68,619,390.55,619,391.61Z" transform="translate(56.25)"/><polygon class="cls-6" points="684.06 426.27 694.31 409.47 694.31 402.28 679.68 426.27 684.06 426.27"/><polygon class="cls-6" points="690.39 426.27 694.31 419.85 694.31 415.06 687.47 426.27 690.39 426.27"/><rect class="cls-7" x="590.25" y="431.5" width="109.64" height="2.61"/><rect class="cls-8" x="590.25" y="428.89" width="109.64" height="2.62"/><rect class="cls-7" x="582.69" y="311.27" width="128.54" height="2.61"/><rect class="cls-8" x="582.69" y="308.65" width="128.54" height="2.62"/><rect class="cls-3" x="431.16" y="267.53" width="153.58" height="205.72"/><rect class="cls-4" x="428.76" y="267.53" width="2.4" height="205.72"/><rect class="cls-4" x="443.16" y="287.44" width="28.79" height="53.09"/><path class="cls-5" d="M389.19,293.21v41.55c0,1.36.79,2.45,1.77,2.45h20.69c1,0,1.77-1.09,1.77-2.45V293.21c0-1.35-.79-2.45-1.77-2.45H391C390,290.76,389.19,291.86,389.19,293.21Z" transform="translate(56.25)"/><polygon class="cls-6" points="456.66 337.21 469.67 315.88 469.67 306.76 451.1 337.21 456.66 337.21"/><polygon class="cls-6" points="464.7 337.21 469.67 329.06 469.67 322.98 460.99 337.21 464.7 337.21"/><rect class="cls-4" x="476.75" y="287.44" width="28.8" height="53.09"/><path class="cls-5" d="M422.79,293.21v41.55c0,1.36.79,2.45,1.77,2.45h20.69c1,0,1.77-1.09,1.77-2.45V293.21c0-1.35-.79-2.45-1.77-2.45H424.56C423.58,290.76,422.79,291.86,422.79,293.21Z" transform="translate(56.25)"/><polygon class="cls-6" points="490.25 337.21 503.27 315.88 503.27 306.76 484.69 337.21 490.25 337.21"/><polygon class="cls-6" points="498.29 337.21 503.27 329.06 503.27 322.98 494.58 337.21 498.29 337.21"/><rect class="cls-4" x="510.35" y="287.44" width="28.79" height="53.09"/><path class="cls-5" d="M456.38,293.21v41.55c0,1.36.79,2.45,1.77,2.45h20.69c1,0,1.77-1.09,1.77-2.45V293.21c0-1.35-.79-2.45-1.77-2.45H458.15C457.17,290.76,456.38,291.86,456.38,293.21Z" transform="translate(56.25)"/><polygon class="cls-6" points="523.85 337.21 536.86 315.88 536.86 306.76 518.29 337.21 523.85 337.21"/><polygon class="cls-6" points="531.89 337.21 536.86 329.06 536.86 322.98 528.18 337.21 531.89 337.21"/><rect class="cls-4" x="543.94" y="287.44" width="28.79" height="53.09"/><path class="cls-5" d="M490,293.21v41.55c0,1.36.8,2.45,1.78,2.45h20.69c1,0,1.77-1.09,1.77-2.45V293.21c0-1.35-.79-2.45-1.77-2.45H491.75C490.77,290.76,490,291.86,490,293.21Z" transform="translate(56.25)"/><polygon class="cls-6" points="557.44 337.21 570.46 315.88 570.46 306.76 551.88 337.21 557.44 337.21"/><polygon class="cls-6" points="565.48 337.21 570.46 329.06 570.46 322.98 561.77 337.21 565.48 337.21"/><rect class="cls-7" x="438.36" y="343.85" width="139.18" height="3.32"/><rect class="cls-8" x="438.36" y="340.53" width="139.18" height="3.32"/><rect class="cls-4" x="443.16" y="363.76" width="28.79" height="53.09"/><path class="cls-5" d="M389.19,369.53v41.55c0,1.35.79,2.45,1.77,2.45h20.69c1,0,1.77-1.1,1.77-2.45V369.53c0-1.36-.79-2.46-1.77-2.46H391C390,367.07,389.19,368.17,389.19,369.53Z" transform="translate(56.25)"/><polygon class="cls-6" points="456.66 413.53 469.67 392.19 469.67 383.07 451.1 413.53 456.66 413.53"/><polygon class="cls-6" points="464.7 413.53 469.67 405.38 469.67 399.29 460.99 413.53 464.7 413.53"/><rect class="cls-4" x="476.75" y="363.76" width="28.8" height="53.09"/><path class="cls-5" d="M422.79,369.53v41.55c0,1.35.79,2.45,1.77,2.45h20.69c1,0,1.77-1.1,1.77-2.45V369.53c0-1.36-.79-2.46-1.77-2.46H424.56C423.58,367.07,422.79,368.17,422.79,369.53Z" transform="translate(56.25)"/><polygon class="cls-6" points="490.25 413.53 503.27 392.19 503.27 383.07 484.69 413.53 490.25 413.53"/><polygon class="cls-6" points="498.29 413.53 503.27 405.38 503.27 399.29 494.58 413.53 498.29 413.53"/><rect class="cls-4" x="510.35" y="363.76" width="28.79" height="53.09"/><path class="cls-5" d="M456.38,369.53v41.55c0,1.35.79,2.45,1.77,2.45h20.69c1,0,1.77-1.1,1.77-2.45V369.53c0-1.36-.79-2.46-1.77-2.46H458.15C457.17,367.07,456.38,368.17,456.38,369.53Z" transform="translate(56.25)"/><polygon class="cls-6" points="523.85 413.53 536.86 392.19 536.86 383.07 518.29 413.53 523.85 413.53"/><polygon class="cls-6" points="531.89 413.53 536.86 405.38 536.86 399.29 528.18 413.53 531.89 413.53"/><rect class="cls-4" x="543.94" y="363.76" width="28.79" height="53.09"/><path class="cls-5" d="M490,369.53v41.55c0,1.35.8,2.45,1.78,2.45h20.69c1,0,1.77-1.1,1.77-2.45V369.53c0-1.36-.79-2.46-1.77-2.46H491.75C490.77,367.07,490,368.17,490,369.53Z" transform="translate(56.25)"/><polygon class="cls-6" points="557.44 413.53 570.46 392.19 570.46 383.07 551.88 413.53 557.44 413.53"/><polygon class="cls-6" points="565.48 413.53 570.46 405.38 570.46 399.29 561.77 413.53 565.48 413.53"/><rect class="cls-7" x="438.36" y="420.17" width="139.18" height="3.32"/><rect class="cls-8" x="438.36" y="416.85" width="139.18" height="3.32"/><rect class="cls-7" x="428.76" y="267.53" width="163.18" height="3.31"/><rect class="cls-8" x="428.76" y="264.21" width="163.18" height="3.32"/><rect class="cls-3" x="1.89" y="311.27" width="120.98" height="162.06"/><rect class="cls-4" y="311.27" width="1.89" height="162.06"/><rect class="cls-4" x="11.34" y="326.95" width="22.68" height="41.82"/><path class="cls-5" d="M-43.11,331.49v32.74c0,1.06.63,1.92,1.4,1.92h16.3c.77,0,1.39-.86,1.39-1.92V331.49c0-1.06-.62-1.93-1.39-1.93h-16.3C-42.48,329.56-43.11,330.43-43.11,331.49Z" transform="translate(56.25)"/><polygon class="cls-6" points="21.98 366.15 32.23 349.35 32.23 342.17 17.6 366.15 21.98 366.15"/><polygon class="cls-6" points="28.31 366.15 32.23 359.73 32.23 354.94 25.39 366.15 28.31 366.15"/><rect class="cls-4" x="37.81" y="326.95" width="22.68" height="41.82"/><path class="cls-5" d="M-16.64,331.49v32.74c0,1.06.62,1.92,1.39,1.92H1.05c.77,0,1.4-.86,1.4-1.92V331.49c0-1.06-.63-1.93-1.4-1.93h-16.3C-16,329.56-16.64,330.43-16.64,331.49Z" transform="translate(56.25)"/><polygon class="cls-6" points="48.44 366.15 58.7 349.35 58.7 342.17 44.06 366.15 48.44 366.15"/><polygon class="cls-6" points="54.77 366.15 58.7 359.73 58.7 354.94 51.85 366.15 54.77 366.15"/><rect class="cls-4" x="64.27" y="326.95" width="22.68" height="41.82"/><path class="cls-5" d="M9.82,331.49v32.74c0,1.06.63,1.92,1.4,1.92h16.3c.77,0,1.39-.86,1.39-1.92V331.49c0-1.06-.62-1.93-1.39-1.93H11.22C10.45,329.56,9.82,330.43,9.82,331.49Z" transform="translate(56.25)"/><polygon class="cls-6" points="74.91 366.15 85.16 349.35 85.16 342.17 70.53 366.15 74.91 366.15"/><polygon class="cls-6" points="81.24 366.15 85.16 359.73 85.16 354.94 78.32 366.15 81.24 366.15"/><rect class="cls-4" x="90.74" y="326.95" width="22.68" height="41.82"/><path class="cls-5" d="M36.29,331.49v32.74c0,1.06.62,1.92,1.39,1.92H54c.77,0,1.4-.86,1.4-1.92V331.49c0-1.06-.63-1.93-1.4-1.93H37.68C36.91,329.56,36.29,330.43,36.29,331.49Z" transform="translate(56.25)"/><polygon class="cls-6" points="101.37 366.15 111.63 349.35 111.63 342.17 96.99 366.15 101.37 366.15"/><polygon class="cls-6" points="107.71 366.15 111.63 359.73 111.63 354.94 104.78 366.15 107.71 366.15"/><rect class="cls-7" x="7.56" y="371.38" width="109.64" height="2.62"/><rect class="cls-8" x="7.56" y="368.77" width="109.64" height="2.61"/><rect class="cls-4" x="11.34" y="387.07" width="22.68" height="41.82"/><path class="cls-5" d="M-43.11,391.61v32.74c0,1.06.63,1.93,1.4,1.93h16.3c.77,0,1.39-.87,1.39-1.93V391.61c0-1.06-.62-1.93-1.39-1.93h-16.3C-42.48,389.68-43.11,390.55-43.11,391.61Z" transform="translate(56.25)"/><polygon class="cls-6" points="21.98 426.27 32.23 409.47 32.23 402.28 17.6 426.27 21.98 426.27"/><polygon class="cls-6" points="28.31 426.27 32.23 419.85 32.23 415.06 25.39 426.27 28.31 426.27"/><rect class="cls-4" x="37.81" y="387.07" width="22.68" height="41.82"/><path class="cls-5" d="M-16.64,391.61v32.74c0,1.06.62,1.93,1.39,1.93H1.05c.77,0,1.4-.87,1.4-1.93V391.61c0-1.06-.63-1.93-1.4-1.93h-16.3C-16,389.68-16.64,390.55-16.64,391.61Z" transform="translate(56.25)"/><polygon class="cls-6" points="48.44 426.27 58.7 409.47 58.7 402.28 44.06 426.27 48.44 426.27"/><polygon class="cls-6" points="54.77 426.27 58.7 419.85 58.7 415.06 51.85 426.27 54.77 426.27"/><rect class="cls-4" x="64.27" y="387.07" width="22.68" height="41.82"/><path class="cls-5" d="M9.82,391.61v32.74c0,1.06.63,1.93,1.4,1.93h16.3c.77,0,1.39-.87,1.39-1.93V391.61c0-1.06-.62-1.93-1.39-1.93H11.22C10.45,389.68,9.82,390.55,9.82,391.61Z" transform="translate(56.25)"/><polygon class="cls-6" points="74.91 426.27 85.16 409.47 85.16 402.28 70.53 426.27 74.91 426.27"/><polygon class="cls-6" points="81.24 426.27 85.16 419.85 85.16 415.06 78.32 426.27 81.24 426.27"/><rect class="cls-4" x="90.74" y="387.07" width="22.68" height="41.82"/><path class="cls-5" d="M36.29,391.61v32.74c0,1.06.62,1.93,1.39,1.93H54c.77,0,1.4-.87,1.4-1.93V391.61c0-1.06-.63-1.93-1.4-1.93H37.68C36.91,389.68,36.29,390.55,36.29,391.61Z" transform="translate(56.25)"/><polygon class="cls-6" points="101.37 426.27 111.63 409.47 111.63 402.28 96.99 426.27 101.37 426.27"/><polygon class="cls-6" points="107.71 426.27 111.63 419.85 111.63 415.06 104.78 426.27 107.71 426.27"/><rect class="cls-7" x="7.56" y="431.5" width="109.64" height="2.61"/><rect class="cls-8" x="7.56" y="428.89" width="109.64" height="2.62"/><rect class="cls-7" y="311.27" width="128.54" height="2.61"/><rect class="cls-8" y="308.65" width="128.54" height="2.62"/><rect class="cls-3" x="121.6" y="267.53" width="153.58" height="205.72"/><rect class="cls-4" x="272.78" y="267.53" width="2.4" height="205.72"/><rect class="cls-4" x="131.2" y="287.44" width="28.8" height="53.09"/><path class="cls-5" d="M77.23,293.21v41.55c0,1.36.8,2.45,1.78,2.45H99.7c1,0,1.77-1.09,1.77-2.45V293.21c0-1.35-.8-2.45-1.77-2.45H79C78,290.76,77.23,291.86,77.23,293.21Z" transform="translate(56.25)"/><polygon class="cls-6" points="144.7 337.21 157.72 315.88 157.72 306.76 139.14 337.21 144.7 337.21"/><polygon class="cls-6" points="152.74 337.21 157.72 329.06 157.72 322.98 149.03 337.21 152.74 337.21"/><rect class="cls-4" x="164.8" y="287.44" width="28.8" height="53.09"/><path class="cls-5" d="M110.83,293.21v41.55c0,1.36.79,2.45,1.77,2.45h20.69c1,0,1.77-1.09,1.77-2.45V293.21c0-1.35-.79-2.45-1.77-2.45H112.6C111.62,290.76,110.83,291.86,110.83,293.21Z" transform="translate(56.25)"/><polygon class="cls-6" points="178.3 337.21 191.31 315.88 191.31 306.76 172.74 337.21 178.3 337.21"/><polygon class="cls-6" points="186.34 337.21 191.31 329.06 191.31 322.98 182.63 337.21 186.34 337.21"/><rect class="cls-4" x="198.39" y="287.44" width="28.79" height="53.09"/><path class="cls-5" d="M144.42,293.21v41.55c0,1.36.8,2.45,1.78,2.45h20.69c1,0,1.77-1.09,1.77-2.45V293.21c0-1.35-.79-2.45-1.77-2.45H146.2C145.22,290.76,144.42,291.86,144.42,293.21Z" transform="translate(56.25)"/><polygon class="cls-6" points="211.89 337.21 224.91 315.88 224.91 306.76 206.33 337.21 211.89 337.21"/><polygon class="cls-6" points="219.93 337.21 224.91 329.06 224.91 322.98 216.22 337.21 219.93 337.21"/><rect class="cls-4" x="231.99" y="287.44" width="28.8" height="53.09"/><path class="cls-5" d="M178,293.21v41.55c0,1.36.79,2.45,1.77,2.45h20.69c1,0,1.77-1.09,1.77-2.45V293.21c0-1.35-.79-2.45-1.77-2.45H179.79C178.81,290.76,178,291.86,178,293.21Z" transform="translate(56.25)"/><polygon class="cls-6" points="245.49 337.21 258.5 315.88 258.5 306.76 239.93 337.21 245.49 337.21"/><polygon class="cls-6" points="253.53 337.21 258.5 329.06 258.5 322.98 249.82 337.21 253.53 337.21"/><rect class="cls-7" x="126.4" y="343.85" width="139.18" height="3.32"/><rect class="cls-8" x="126.4" y="340.53" width="139.18" height="3.32"/><rect class="cls-4" x="131.2" y="363.76" width="28.8" height="53.09"/><path class="cls-5" d="M77.23,369.53v41.55c0,1.35.8,2.45,1.78,2.45H99.7c1,0,1.77-1.1,1.77-2.45V369.53c0-1.36-.8-2.46-1.77-2.46H79C78,367.07,77.23,368.17,77.23,369.53Z" transform="translate(56.25)"/><polygon class="cls-6" points="144.7 413.53 157.72 392.19 157.72 383.07 139.14 413.53 144.7 413.53"/><polygon class="cls-6" points="152.74 413.53 157.72 405.38 157.72 399.29 149.03 413.53 152.74 413.53"/><rect class="cls-4" x="164.8" y="363.76" width="28.8" height="53.09"/><path class="cls-5" d="M110.83,369.53v41.55c0,1.35.79,2.45,1.77,2.45h20.69c1,0,1.77-1.1,1.77-2.45V369.53c0-1.36-.79-2.46-1.77-2.46H112.6C111.62,367.07,110.83,368.17,110.83,369.53Z" transform="translate(56.25)"/><polygon class="cls-6" points="178.3 413.53 191.31 392.19 191.31 383.07 172.74 413.53 178.3 413.53"/><polygon class="cls-6" points="186.34 413.53 191.31 405.38 191.31 399.29 182.63 413.53 186.34 413.53"/><rect class="cls-4" x="198.39" y="363.76" width="28.79" height="53.09"/><path class="cls-5" d="M144.42,369.53v41.55c0,1.35.8,2.45,1.78,2.45h20.69c1,0,1.77-1.1,1.77-2.45V369.53c0-1.36-.79-2.46-1.77-2.46H146.2C145.22,367.07,144.42,368.17,144.42,369.53Z" transform="translate(56.25)"/><polygon class="cls-6" points="211.89 413.53 224.91 392.19 224.91 383.07 206.33 413.53 211.89 413.53"/><polygon class="cls-6" points="219.93 413.53 224.91 405.38 224.91 399.29 216.22 413.53 219.93 413.53"/><rect class="cls-4" x="231.99" y="363.76" width="28.8" height="53.09"/><path class="cls-5" d="M178,369.53v41.55c0,1.35.79,2.45,1.77,2.45h20.69c1,0,1.77-1.1,1.77-2.45V369.53c0-1.36-.79-2.46-1.77-2.46H179.79C178.81,367.07,178,368.17,178,369.53Z" transform="translate(56.25)"/><polygon class="cls-6" points="245.49 413.53 258.5 392.19 258.5 383.07 239.93 413.53 245.49 413.53"/><polygon class="cls-6" points="253.53 413.53 258.5 405.38 258.5 399.29 249.82 413.53 253.53 413.53"/><rect class="cls-7" x="126.4" y="420.17" width="139.18" height="3.32"/><rect class="cls-8" x="126.4" y="416.85" width="139.18" height="3.32"/><rect class="cls-7" x="116.8" y="267.53" width="163.18" height="3.31"/><rect class="cls-8" x="116.8" y="264.21" width="163.18" height="3.32"/><polygon class="cls-9" points="431.16 326.88 431.16 473.25 508.36 473.25 431.16 326.88"/><rect class="cls-3" x="275.18" y="216.49" width="153.58" height="256.76"/><rect class="cls-4" x="300.37" y="396.46" width="103.19" height="76.79"/><rect class="cls-5" x="302.78" y="396.46" width="47.99" height="76.79"/><polygon class="cls-6" points="350.77 396.46 302.78 446.86 302.78 396.46 350.77 396.46"/><rect class="cls-5" x="353.17" y="396.46" width="47.99" height="76.79"/><polygon class="cls-6" points="401.16 396.46 353.17 446.86 353.17 396.46 401.16 396.46"/><path class="cls-10" d="M289.84,435.82a1,1,0,0,1-1-1v-7.2a1,1,0,0,1,1.92,0v7.2A1,1,0,0,1,289.84,435.82Z" transform="translate(56.25)"/><path class="cls-10" d="M301.6,435.82a1,1,0,0,1-1-1v-7.2a1,1,0,0,1,1.92,0v7.2A1,1,0,0,1,301.6,435.82Z" transform="translate(56.25)"/><rect class="cls-7" x="296.78" y="396.46" width="110.38" height="2.4"/><rect class="cls-8" x="296.78" y="394.07" width="110.38" height="2.4"/><rect class="cls-4" x="287.58" y="338.88" width="28.8" height="38.39"/><rect class="cls-5" x="289.87" y="341.28" width="24.23" height="33.59" rx="1.77"/><polygon class="cls-6" points="301.09 374.87 314.1 359.44 314.1 352.85 295.52 374.87 301.09 374.87"/><polygon class="cls-6" points="309.13 374.87 314.1 368.97 314.1 364.57 305.42 374.87 309.13 374.87"/><rect class="cls-4" x="321.18" y="338.88" width="28.8" height="38.39"/><rect class="cls-5" x="323.46" y="341.28" width="24.23" height="33.59" rx="1.77"/><polygon class="cls-6" points="334.68 374.87 347.69 359.44 347.69 352.85 329.12 374.87 334.68 374.87"/><polygon class="cls-6" points="342.72 374.87 347.69 368.97 347.69 364.57 339.01 374.87 342.72 374.87"/><rect class="cls-4" x="354.77" y="338.88" width="28.8" height="38.39"/><path class="cls-5" d="M300.81,343.05V373.1a1.77,1.77,0,0,0,1.77,1.77h20.69A1.77,1.77,0,0,0,325,373.1V343.05a1.77,1.77,0,0,0-1.77-1.77H302.58A1.77,1.77,0,0,0,300.81,343.05Z" transform="translate(56.25)"/><polygon class="cls-6" points="368.28 374.87 381.29 359.44 381.29 352.85 362.71 374.87 368.28 374.87"/><polygon class="cls-6" points="376.32 374.87 381.29 368.97 381.29 364.57 372.61 374.87 376.32 374.87"/><rect class="cls-4" x="388.37" y="338.88" width="28.79" height="38.39"/><rect class="cls-5" x="390.65" y="341.28" width="24.23" height="33.59" rx="1.77"/><polygon class="cls-6" points="401.87 374.87 414.88 359.44 414.88 352.85 396.31 374.87 401.87 374.87"/><polygon class="cls-6" points="409.91 374.87 414.88 368.97 414.88 364.57 406.2 374.87 409.91 374.87"/><rect class="cls-7" x="282.79" y="379.67" width="139.18" height="2.4"/><rect class="cls-8" x="282.79" y="377.27" width="139.18" height="2.4"/><rect class="cls-4" x="287.58" y="283.68" width="28.8" height="38.39"/><rect class="cls-5" x="289.87" y="286.08" width="24.23" height="33.59" rx="1.77"/><polygon class="cls-6" points="301.09 319.68 314.1 304.25 314.1 297.65 295.52 319.68 301.09 319.68"/><polygon class="cls-6" points="309.13 319.68 314.1 313.78 314.1 309.38 305.42 319.68 309.13 319.68"/><rect class="cls-4" x="321.18" y="283.68" width="28.8" height="38.39"/><rect class="cls-5" x="323.46" y="286.08" width="24.23" height="33.59" rx="1.77"/><polygon class="cls-6" points="334.68 319.68 347.69 304.25 347.69 297.65 329.12 319.68 334.68 319.68"/><polygon class="cls-6" points="342.72 319.68 347.69 313.78 347.69 309.38 339.01 319.68 342.72 319.68"/><rect class="cls-4" x="354.77" y="283.68" width="28.8" height="38.39"/><rect class="cls-5" x="357.06" y="286.08" width="24.23" height="33.59" rx="1.77"/><polygon class="cls-6" points="368.28 319.68 381.29 304.25 381.29 297.65 362.71 319.68 368.28 319.68"/><polygon class="cls-6" points="376.32 319.68 381.29 313.78 381.29 309.38 372.61 319.68 376.32 319.68"/><rect class="cls-4" x="388.37" y="283.68" width="28.79" height="38.39"/><rect class="cls-5" x="390.65" y="286.08" width="24.23" height="33.59" rx="1.77"/><polygon class="cls-6" points="401.87 319.68 414.88 304.25 414.88 297.65 396.31 319.68 401.87 319.68"/><polygon class="cls-6" points="409.91 319.68 414.88 313.78 414.88 309.38 406.2 319.68 409.91 319.68"/><rect class="cls-7" x="282.79" y="324.48" width="139.18" height="2.4"/><rect class="cls-8" x="282.79" y="322.08" width="139.18" height="2.4"/><rect class="cls-4" x="287.58" y="228.49" width="28.8" height="38.4"/><rect class="cls-5" x="289.87" y="230.89" width="24.23" height="33.59" rx="1.77"/><polygon class="cls-6" points="301.09 264.49 314.1 249.06 314.1 242.46 295.52 264.49 301.09 264.49"/><polygon class="cls-6" points="309.13 264.49 314.1 258.59 314.1 254.19 305.42 264.49 309.13 264.49"/><rect class="cls-4" x="321.18" y="228.49" width="28.8" height="38.4"/><rect class="cls-5" x="323.46" y="230.89" width="24.23" height="33.59" rx="1.77"/><polygon class="cls-6" points="334.68 264.49 347.69 249.06 347.69 242.46 329.12 264.49 334.68 264.49"/><polygon class="cls-6" points="342.72 264.49 347.69 258.59 347.69 254.19 339.01 264.49 342.72 264.49"/><rect class="cls-4" x="354.77" y="228.49" width="28.8" height="38.4"/><rect class="cls-5" x="357.06" y="230.89" width="24.23" height="33.59" rx="1.77"/><polygon class="cls-6" points="368.28 264.49 381.29 249.06 381.29 242.46 362.71 264.49 368.28 264.49"/><polygon class="cls-6" points="376.32 264.49 381.29 258.59 381.29 254.19 372.61 264.49 376.32 264.49"/><rect class="cls-4" x="388.37" y="228.49" width="28.79" height="38.4"/><rect class="cls-5" x="390.65" y="230.89" width="24.23" height="33.59" rx="1.77"/><polygon class="cls-6" points="401.87 264.49 414.88 249.06 414.88 242.46 396.31 264.49 401.87 264.49"/><polygon class="cls-6" points="409.91 264.49 414.88 258.59 414.88 254.19 406.2 264.49 409.91 264.49"/><rect class="cls-7" x="282.79" y="269.28" width="139.18" height="2.4"/><rect class="cls-8" x="282.79" y="266.89" width="139.18" height="2.4"/><rect class="cls-7" x="270.38" y="218.89" width="163.18" height="2.4"/><rect class="cls-8" x="270.38" y="216.49" width="163.18" height="2.4"/><rect class="cls-3" x="123.15" y="260.3" width="146.99" height="6.02"/><rect class="cls-7" x="123.15" y="248.31" width="146.99" height="11.99"/><path class="cls-3" d="M87.92,248.29c12.89-12.22,32-20,53.37-20s40.48,7.74,53.37,20Z" transform="translate(56.25)"/><polygon class="cls-3" points="221.96 206.08 225.68 202.36 169.39 202.36 173.11 206.08 173.11 230.51 221.96 230.51 221.96 206.08"/><path class="cls-3" d="M135.63,227.79V210.41a3,3,0,0,0-3-3h-.06a3,3,0,0,0-3,3v17.38a1.92,1.92,0,0,0,1.92,1.92h2.23A1.92,1.92,0,0,0,135.63,227.79Z" transform="translate(56.25)"/><path class="cls-11" d="M135.63,227.62v-14.4a3,3,0,0,0-3-3h-.06a3,3,0,0,0-3,3v14.4a1.92,1.92,0,0,0,1.92,1.92h2.23A1.92,1.92,0,0,0,135.63,227.62Z" transform="translate(56.25)"/><rect class="cls-3" x="186.91" y="210.64" width="3.87" height="18.47" rx="1.92"/><path class="cls-3" d="M127,227.79V210.41a3,3,0,0,0-3-3h-.06a3,3,0,0,0-3,3v17.38a1.92,1.92,0,0,0,1.92,1.92H125A1.92,1.92,0,0,0,127,227.79Z" transform="translate(56.25)"/><path class="cls-11" d="M127,227.62v-14.4a3,3,0,0,0-3-3h-.06a3,3,0,0,0-3,3v14.4a1.92,1.92,0,0,0,1.92,1.92H125A1.92,1.92,0,0,0,127,227.62Z" transform="translate(56.25)"/><rect class="cls-3" x="178.24" y="210.64" width="3.87" height="18.47" rx="1.92"/><path class="cls-3" d="M144.29,227.79V210.41a3,3,0,0,0-3-3h-.06a3,3,0,0,0-3,3v17.38a1.92,1.92,0,0,0,1.92,1.92h2.22A1.92,1.92,0,0,0,144.29,227.79Z" transform="translate(56.25)"/><path class="cls-11" d="M144.29,227.62v-14.4a3,3,0,0,0-3-3h-.06a3,3,0,0,0-3,3v14.4a1.92,1.92,0,0,0,1.92,1.92h2.22A1.92,1.92,0,0,0,144.29,227.62Z" transform="translate(56.25)"/><rect class="cls-3" x="195.57" y="210.64" width="3.87" height="18.47" rx="1.92"/><polygon class="cls-7" points="173.11 206.08 221.96 206.08 225.68 202.36 169.05 202.36 173.11 206.08"/><rect class="cls-7" x="186.91" y="213.25" width="3.87" height="15.87" rx="1.92"/><rect class="cls-7" x="178.24" y="213.25" width="3.87" height="15.87" rx="1.92"/><rect class="cls-7" x="195.57" y="213.25" width="3.87" height="15.87" rx="1.92"/><path class="cls-3" d="M161.68,227.79V210.41a3,3,0,0,0-3-3h-.06a3,3,0,0,0-3,3v17.38a1.92,1.92,0,0,0,1.92,1.92h2.22A1.92,1.92,0,0,0,161.68,227.79Z" transform="translate(56.25)"/><path class="cls-11" d="M161.68,227.62v-14.4a3,3,0,0,0-3-3h-.06a3,3,0,0,0-3,3v14.4a1.92,1.92,0,0,0,1.92,1.92h2.22A1.92,1.92,0,0,0,161.68,227.62Z" transform="translate(56.25)"/><rect class="cls-3" x="212.96" y="210.64" width="3.87" height="18.47" rx="1.92"/><path class="cls-3" d="M153,227.79V210.41a3,3,0,0,0-3-3H150a3,3,0,0,0-3,3v17.38a1.92,1.92,0,0,0,1.92,1.92h2.23A1.91,1.91,0,0,0,153,227.79Z" transform="translate(56.25)"/><path class="cls-11" d="M153,227.62v-14.4a3,3,0,0,0-3-3H150a3,3,0,0,0-3,3v14.4a1.92,1.92,0,0,0,1.92,1.92h2.23A1.91,1.91,0,0,0,153,227.62Z" transform="translate(56.25)"/><rect class="cls-3" x="204.29" y="210.64" width="3.87" height="18.47" rx="1.92"/><rect class="cls-7" x="212.96" y="213.25" width="3.87" height="15.87" rx="1.92"/><rect class="cls-7" x="204.29" y="213.25" width="3.87" height="15.87" rx="1.92"/><path class="cls-3" d="M115.24,194.5h.05a2.43,2.43,0,0,1,2.43,2.44V199h8v-2.07a2.43,2.43,0,0,1,2.43-2.44h.05a2.44,2.44,0,0,1,2.44,2.44V199h8v-2.07a2.44,2.44,0,0,1,2.44-2.44h0a2.43,2.43,0,0,1,2.43,2.44V199h7.93v-2.07A2.43,2.43,0,0,1,154,194.5h0a2.44,2.44,0,0,1,2.44,2.44V199h8v-2.07A2.44,2.44,0,0,1,167,194.5H167a2.43,2.43,0,0,1,2.43,2.44v5.42H112.8v-5.42A2.44,2.44,0,0,1,115.24,194.5Z" transform="translate(56.25)"/><rect class="cls-7" x="173.11" y="230.51" width="48.85" height="2.24"/><path class="cls-4" d="M194.66,248.31H87.92a63.15,63.15,0,0,1,6.62-5.48H188A63.15,63.15,0,0,1,194.66,248.31Z" transform="translate(56.25)"/><rect class="cls-12" x="173.11" y="206.02" width="48.85" height="4.37"/><rect class="cls-3" x="434.02" y="260.3" width="147" height="6.02"/><rect class="cls-7" x="434.02" y="248.31" width="147" height="11.99"/><path class="cls-3" d="M398.79,248.29c12.89-12.22,32-20,53.37-20s40.48,7.74,53.37,20Z" transform="translate(56.25)"/><polygon class="cls-3" points="532.83 206.08 536.55 202.36 480.26 202.36 483.98 206.08 483.98 230.51 532.83 230.51 532.83 206.08"/><path class="cls-3" d="M446.5,227.79V210.41a3,3,0,0,0-3-3h-.06a3,3,0,0,0-3,3v17.38a1.92,1.92,0,0,0,1.91,1.92h2.23A1.92,1.92,0,0,0,446.5,227.79Z" transform="translate(56.25)"/><path class="cls-11" d="M446.5,227.62v-14.4a3,3,0,0,0-3-3h-.06a3,3,0,0,0-3,3v14.4a1.92,1.92,0,0,0,1.91,1.92h2.23A1.92,1.92,0,0,0,446.5,227.62Z" transform="translate(56.25)"/><rect class="cls-3" x="497.78" y="210.64" width="3.87" height="18.47" rx="1.92"/><path class="cls-3" d="M437.83,227.79V210.41a3,3,0,0,0-3-3h-.06a3,3,0,0,0-3,3v17.38a1.92,1.92,0,0,0,1.92,1.92h2.23A1.91,1.91,0,0,0,437.83,227.79Z" transform="translate(56.25)"/><path class="cls-11" d="M437.83,227.62v-14.4a3,3,0,0,0-3-3h-.06a3,3,0,0,0-3,3v14.4a1.92,1.92,0,0,0,1.92,1.92h2.23A1.91,1.91,0,0,0,437.83,227.62Z" transform="translate(56.25)"/><rect class="cls-3" x="489.11" y="210.64" width="3.87" height="18.47" rx="1.92"/><path class="cls-3" d="M455.16,227.79V210.41a3,3,0,0,0-3-3h-.06a3,3,0,0,0-3,3v17.38a1.92,1.92,0,0,0,1.92,1.92h2.23A1.91,1.91,0,0,0,455.16,227.79Z" transform="translate(56.25)"/><path class="cls-11" d="M455.16,227.62v-14.4a3,3,0,0,0-3-3h-.06a3,3,0,0,0-3,3v14.4a1.92,1.92,0,0,0,1.92,1.92h2.23A1.91,1.91,0,0,0,455.16,227.62Z" transform="translate(56.25)"/><rect class="cls-3" x="506.44" y="210.64" width="3.87" height="18.47" rx="1.92"/><polygon class="cls-7" points="483.98 206.08 532.83 206.08 536.55 202.36 479.92 202.36 483.98 206.08"/><rect class="cls-7" x="497.78" y="213.25" width="3.87" height="15.87" rx="1.92"/><rect class="cls-7" x="489.11" y="213.25" width="3.87" height="15.87" rx="1.92"/><rect class="cls-7" x="506.44" y="213.25" width="3.87" height="15.87" rx="1.92"/><path class="cls-3" d="M472.55,227.79V210.41a3,3,0,0,0-3-3h-.06a3,3,0,0,0-3,3v17.38a1.92,1.92,0,0,0,1.92,1.92h2.22A1.92,1.92,0,0,0,472.55,227.79Z" transform="translate(56.25)"/><path class="cls-11" d="M472.55,227.62v-14.4a3,3,0,0,0-3-3h-.06a3,3,0,0,0-3,3v14.4a1.92,1.92,0,0,0,1.92,1.92h2.22A1.92,1.92,0,0,0,472.55,227.62Z" transform="translate(56.25)"/><rect class="cls-3" x="523.83" y="210.64" width="3.88" height="18.47" rx="1.92"/><path class="cls-3" d="M463.89,227.79V210.41a3,3,0,0,0-3-3h-.06a3,3,0,0,0-3,3v17.38a1.91,1.91,0,0,0,1.91,1.92H462A1.92,1.92,0,0,0,463.89,227.79Z" transform="translate(56.25)"/><path class="cls-11" d="M463.89,227.62v-14.4a3,3,0,0,0-3-3h-.06a3,3,0,0,0-3,3v14.4a1.91,1.91,0,0,0,1.91,1.92H462A1.92,1.92,0,0,0,463.89,227.62Z" transform="translate(56.25)"/><rect class="cls-3" x="515.17" y="210.64" width="3.87" height="18.47" rx="1.92"/><rect class="cls-7" x="523.83" y="213.25" width="3.88" height="15.87" rx="1.92"/><rect class="cls-7" x="515.17" y="213.25" width="3.87" height="15.87" rx="1.92"/><path class="cls-3" d="M426.11,194.5h.05a2.44,2.44,0,0,1,2.44,2.44V199h8v-2.07a2.44,2.44,0,0,1,2.44-2.44h.05a2.43,2.43,0,0,1,2.43,2.44V199h8v-2.07A2.44,2.44,0,0,1,452,194.5h.05a2.43,2.43,0,0,1,2.43,2.44V199h7.93v-2.07a2.44,2.44,0,0,1,2.44-2.44h0a2.44,2.44,0,0,1,2.44,2.44V199h8v-2.07a2.44,2.44,0,0,1,2.44-2.44h.05a2.43,2.43,0,0,1,2.43,2.44v5.42H423.67v-5.42A2.44,2.44,0,0,1,426.11,194.5Z" transform="translate(56.25)"/><rect class="cls-7" x="483.98" y="230.51" width="48.85" height="2.24"/><path class="cls-4" d="M505.53,248.31H398.79a64.2,64.2,0,0,1,6.62-5.48h93.5A63.15,63.15,0,0,1,505.53,248.31Z" transform="translate(56.25)"/><rect class="cls-12" x="483.98" y="206.02" width="48.85" height="4.37"/><polygon class="cls-8" points="444.93 216.96 355.18 169.67 355.18 169.66 265.4 216.94 355.15 216.56 355.15 216.58 444.93 216.96"/><path class="cls-3" d="M398.94,219.11l-98.78-52.55a2.47,2.47,0,0,0-1.25-.3,2.43,2.43,0,0,0-1.23.28L198,217.85a2,2,0,0,0-1.09,2.84,2.62,2.62,0,0,0,3.27,1L299,170.81l98.18,51.26c1.21.53,2.62.81,3.22-.24S400.14,219.63,398.94,219.11Z" transform="translate(56.25)"/><polygon class="cls-3" points="408.84 207.86 355.22 181.62 302.61 207.85 408.84 207.86"/><polygon class="cls-3" points="256.46 221.65 453.39 221.65 446.82 215.07 265.4 215.07 256.46 221.65"/><path class="cls-13" d="M459.77,385.91c-2.6-2.17-.43-2.6-.43-4.34,0,0,1.74-1.74,1.74-2.61.43-1.73-1.74-1.3-1.74-2.6.43-4.78,2.17-9.56-2.61-12.16,1.31-4.35-3.91-3-4.77-6.95a64.18,64.18,0,0,1,3.91-7.82c.86.43,2.17.43,3,.87,1.3-3-2.61-12.6-4.78-15.2-.87-5.65-3.91-9.56-9.56-11.29-3-.87-6.08.43-10,0h-2.17c-1.3-.87-2.17-1.74-3.47-1.74a2.73,2.73,0,0,0,0,2.6c-3,0-2.17.44-3.91,1.74-2.17.44-1.74,0-3,1.74-3.48.43-10.86,7-5.21,9.12-3.48,3.47-2.61,12.16,0,15.63-3,.87-2.61,2.18-3.91,4.35,1.74,0,4.34,1.3,6.08,1.73-3.48,3-3.48,9.56-5.21,14.34-3.91-.44-6.08,2.6-5.65,6.08.87,0,2.17.43,3,.43-2.17,2.61-3,6.95,1.3,6.95-2.17,2.61-4.77,7.38-1.3,9.55-3,2.61-4.78,7.39-5.21,10.86-.43,2.17-1.3,10.43,5.65,5.65-.87,3-2.18,6.08.43,8.68.43-.86.87-1.3,1.3-2.17-.43,3.91,2.61,9.12,6.95,9.12,2.17,0,2.17-3.9,5.65-3.47,1.3,0,4.34,3.47,5.21,4.34,3.91-.43,12.16-.43,13-3.47,3.91,2.17,5.65-1.74,7.38-4.78,3.91,3,4.78-1.74,4.35-5.21,4.34.43,10-9.12,7.81-12.6C470.2,400.68,456.3,391.56,459.77,385.91Z" transform="translate(56.25)"/><polygon class="cls-14" points="490.51 475.5 491.81 347.38 494.42 475.5 490.51 475.5"/><polygon class="cls-14" points="503.97 396.45 492.25 410.78 492.25 413.39 503.97 396.45"/><path class="cls-14" d="M423.84,380c1.3.43,11.73,12.16,11.73,12.16v2.17Z" transform="translate(56.25)"/><polygon class="cls-14" points="499.63 364.75 492.25 373 492.25 374.74 499.63 364.75"/><path class="cls-15" d="M446.29,343.45c0,1.35-2.4,2.44-5.37,2.44s-5.38-1.09-5.38-2.44S438,341,440.92,341,446.29,342.1,446.29,343.45Z" transform="translate(56.25)"/><path class="cls-15" d="M459.51,403.91c0,.86-1.53,1.55-3.42,1.55s-3.43-.69-3.43-1.55,1.53-1.56,3.43-1.56S459.51,403.05,459.51,403.91Z" transform="translate(56.25)"/><path class="cls-15" d="M448.76,379.08c0,.86-1.53,1.56-3.42,1.56s-3.43-.7-3.43-1.56,1.53-1.56,3.43-1.56S448.76,378.22,448.76,379.08Z" transform="translate(56.25)"/><path class="cls-15" d="M449,351.72c0,.43-.77.78-1.72.78s-1.71-.35-1.71-.78.76-.78,1.71-.78S449,351.29,449,351.72Z" transform="translate(56.25)"/><path class="cls-15" d="M441.43,396.67c0,.43-.77.78-1.72.78s-1.71-.35-1.71-.78.77-.78,1.71-.78S441.43,396.24,441.43,396.67Z" transform="translate(56.25)"/><path class="cls-16" d="M453.45,370.42c0,.65-1.16,1.17-2.58,1.17s-2.57-.52-2.57-1.17,1.16-1.17,2.57-1.17S453.45,369.78,453.45,370.42Z" transform="translate(56.25)"/><path class="cls-16" d="M432,353.48c0,.65-1.15,1.17-2.57,1.17s-2.57-.52-2.57-1.17,1.15-1.17,2.57-1.17S432,352.84,432,353.48Z" transform="translate(56.25)"/><path class="cls-16" d="M439.13,335.24c0,.32-.57.59-1.28.59s-1.29-.27-1.29-.59.58-.58,1.29-.58S439.13,334.92,439.13,335.24Z" transform="translate(56.25)"/><path class="cls-16" d="M451.83,387.16c0,.32-.57.58-1.28.58s-1.29-.26-1.29-.58.58-.59,1.29-.59S451.83,386.83,451.83,387.16Z" transform="translate(56.25)"/><path class="cls-16" d="M427.73,400.51c0,.32-.58.59-1.29.59s-1.28-.27-1.28-.59.58-.58,1.28-.58S427.73,400.19,427.73,400.51Z" transform="translate(56.25)"/><g class="cls-17"><path class="cls-18" d="M462.64,410.3c-4.73.06-17.52,5.45-18.13,8.52-1.3-.65-4.56-1.95-5.21-2.61a28,28,0,0,1-.65,3.26c-2-12.38-14.34-2.6-19.55-10.42,2.61-1.3-1.34-10.7,2.57-10.05.65-5.21,9.81-3,12.41-7.54-11.07,11.07-17.58-7.82-3.25-7.17-2.61-3.25-8.47-1.3-12.38-3.25,5.21-3.26,9.12-14.34,9.77-20.85,0-5.86-5.86-14.33,3.26-16.29-2-1.3-3.91-3.26-7.17-3.26-.65-5.21,2-8.46,6.52-7.16.65-1.3.65-2.61,1.3-3.91,5.21-.65,4.56-3.26,10.42-4.56,1.29-.43,3.43,0,5.48.32a15.4,15.4,0,0,0-3.46-1.52c-3-.87-6.08.43-10,0h-2.17c-1.3-.87-2.17-1.74-3.47-1.74a2.73,2.73,0,0,0,0,2.6c-3,0-2.17.44-3.91,1.74-2.17.44-1.74,0-3,1.74-3.48.43-10.86,7-5.21,9.12-3.48,3.47-2.61,12.16,0,15.63-3,.87-2.61,2.18-3.91,4.35,1.74,0,4.34,1.3,6.08,1.73-3.48,3-3.48,9.56-5.21,14.34-3.91-.44-6.08,2.6-5.65,6.08.87,0,2.17.43,3,.43-2.17,2.61-3,6.95,1.3,6.95-2.17,2.61-4.77,7.38-1.3,9.55-3,2.61-4.78,7.39-5.21,10.86-.43,2.17-1.3,10.43,5.65,5.65-.87,3-2.18,6.08.43,8.68.43-.86.87-1.3,1.3-2.17-.43,3.91,2.61,9.12,6.95,9.12,2.17,0,2.17-3.9,5.65-3.47,1.3,0,4.34,3.47,5.21,4.34,3.91-.43,12.16-.43,13-3.47,3.91,2.17,5.65-1.74,7.38-4.78,3.91,3,4.78-1.74,4.35-5.21C458.23,416.12,461,413.39,462.64,410.3Z" transform="translate(56.25)"/></g><path class="cls-13" d="M39.77,385.91c-2.6-2.17-.43-2.6-.43-4.34,0,0,1.74-1.74,1.74-2.61.43-1.73-1.74-1.3-1.74-2.6.43-4.78,2.17-9.56-2.61-12.16,1.31-4.35-3.91-3-4.77-6.95a64.18,64.18,0,0,1,3.91-7.82c.86.43,2.17.43,3,.87,1.3-3-2.61-12.6-4.78-15.2-.87-5.65-3.91-9.56-9.56-11.29-3-.87-6.08.43-10,0H12.41c-1.3-.87-2.17-1.74-3.47-1.74a2.73,2.73,0,0,0,0,2.6c-3,0-2.17.44-3.91,1.74-2.17.44-1.74,0-3,1.74-3.48.43-10.86,7-5.21,9.12-3.48,3.47-2.61,12.16,0,15.63-3,.87-2.61,2.18-3.91,4.35,1.74,0,4.34,1.3,6.08,1.73-3.48,3-3.48,9.56-5.21,14.34-3.91-.44-6.08,2.6-5.65,6.08.87,0,2.17.43,3,.43-2.17,2.61-3,6.95,1.3,6.95-2.17,2.61-4.77,7.38-1.3,9.55-3,2.61-4.78,7.39-5.21,10.86-.43,2.17-1.3,10.43,5.65,5.65-.87,3-2.18,6.08.43,8.68.43-.86.87-1.3,1.3-2.17-.43,3.91,2.61,9.12,7,9.12,2.17,0,2.17-3.9,5.65-3.47,1.3,0,4.34,3.47,5.21,4.34,3.91-.43,12.16-.43,13-3.47,3.91,2.17,5.65-1.74,7.38-4.78,3.91,3,4.78-1.74,4.35-5.21,4.34.43,10-9.12,7.81-12.6C50.2,400.68,36.3,391.56,39.77,385.91Z" transform="translate(56.25)"/><polygon class="cls-14" points="70.51 475.5 71.81 347.38 74.42 475.5 70.51 475.5"/><polygon class="cls-14" points="83.97 396.45 72.25 410.78 72.25 413.39 83.97 396.45"/><path class="cls-14" d="M3.84,380c1.3.43,11.73,12.16,11.73,12.16v2.17Z" transform="translate(56.25)"/><polygon class="cls-14" points="79.63 364.75 72.25 373 72.25 374.74 79.63 364.75"/><path class="cls-15" d="M26.29,343.45c0,1.35-2.4,2.44-5.37,2.44s-5.38-1.09-5.38-2.44S18,341,20.92,341,26.29,342.1,26.29,343.45Z" transform="translate(56.25)"/><path class="cls-15" d="M39.51,403.91c0,.86-1.53,1.55-3.42,1.55s-3.43-.69-3.43-1.55,1.53-1.56,3.43-1.56S39.51,403.05,39.51,403.91Z" transform="translate(56.25)"/><path class="cls-15" d="M28.76,379.08c0,.86-1.53,1.56-3.42,1.56s-3.43-.7-3.43-1.56,1.53-1.56,3.43-1.56S28.76,378.22,28.76,379.08Z" transform="translate(56.25)"/><path class="cls-15" d="M29,351.72c0,.43-.77.78-1.72.78s-1.71-.35-1.71-.78.76-.78,1.71-.78S29,351.29,29,351.72Z" transform="translate(56.25)"/><path class="cls-15" d="M21.43,396.67c0,.43-.77.78-1.72.78S18,397.1,18,396.67s.77-.78,1.71-.78S21.43,396.24,21.43,396.67Z" transform="translate(56.25)"/><path class="cls-16" d="M33.45,370.42c0,.65-1.16,1.17-2.58,1.17s-2.57-.52-2.57-1.17,1.16-1.17,2.57-1.17S33.45,369.78,33.45,370.42Z" transform="translate(56.25)"/><path class="cls-16" d="M12,353.48c0,.65-1.15,1.17-2.57,1.17s-2.57-.52-2.57-1.17,1.15-1.17,2.57-1.17S12,352.84,12,353.48Z" transform="translate(56.25)"/><path class="cls-16" d="M19.13,335.24c0,.32-.57.59-1.28.59s-1.29-.27-1.29-.59.58-.58,1.29-.58S19.13,334.92,19.13,335.24Z" transform="translate(56.25)"/><path class="cls-16" d="M31.84,387.16c0,.32-.58.58-1.29.58s-1.29-.26-1.29-.58.58-.59,1.29-.59S31.84,386.83,31.84,387.16Z" transform="translate(56.25)"/><path class="cls-16" d="M7.73,400.51c0,.32-.58.59-1.29.59s-1.28-.27-1.28-.59.58-.58,1.28-.58S7.73,400.19,7.73,400.51Z" transform="translate(56.25)"/><g class="cls-17"><path class="cls-18" d="M42.64,410.3c-4.73.06-17.52,5.45-18.13,8.52-1.3-.65-4.56-1.95-5.21-2.61a28,28,0,0,1-.65,3.26c-2-12.38-14.34-2.6-19.55-10.42,2.61-1.3-1.34-10.7,2.57-10.05.65-5.21,9.81-3,12.42-7.54C3,402.53-3.5,383.64,10.83,384.29,8.22,381,2.36,383-1.55,381c5.21-3.26,9.12-14.34,9.77-20.85,0-5.86-5.86-14.33,3.26-16.29-2-1.3-3.91-3.26-7.17-3.26-.65-5.21,2-8.46,6.52-7.16.65-1.3.65-2.61,1.3-3.91,5.21-.65,4.56-3.26,10.42-4.56,1.29-.43,3.43,0,5.48.32a15.4,15.4,0,0,0-3.46-1.52c-3-.87-6.08.43-10,0H12.41c-1.3-.87-2.17-1.74-3.47-1.74a2.73,2.73,0,0,0,0,2.6c-3,0-2.17.44-3.91,1.74-2.17.44-1.74,0-3,1.74-3.48.43-10.86,7-5.21,9.12-3.48,3.47-2.61,12.16,0,15.63-3,.87-2.61,2.18-3.91,4.35,1.74,0,4.34,1.3,6.08,1.73-3.48,3-3.48,9.56-5.21,14.34-3.91-.44-6.08,2.6-5.65,6.08.87,0,2.17.43,3,.43-2.17,2.61-3,6.95,1.3,6.95-2.17,2.61-4.77,7.38-1.3,9.55-3,2.61-4.78,7.39-5.21,10.86-.43,2.17-1.3,10.43,5.65,5.65-.87,3-2.18,6.08.43,8.68.43-.86.87-1.3,1.3-2.17-.43,3.91,2.61,9.12,7,9.12,2.17,0,2.17-3.9,5.65-3.47,1.3,0,4.34,3.47,5.21,4.34,3.91-.43,12.16-.43,13-3.47,3.91,2.17,5.65-1.74,7.38-4.78,3.91,3,4.78-1.74,4.35-5.21C38.23,416.12,41,413.39,42.64,410.3Z" transform="translate(56.25)"/></g><path class="cls-19" d="M74.24,367.86a8.94,8.94,0,0,0-12.38,2.83s-5.66,3.88-1.06,11.66c0,0-7.78-1.76-10.61,6s-.35,1.76-.35,1.76-1.77,3.19,3.53,8.49c0,0-9.55,1.77-9.9,11,0,0,2.12,7.43,7.43,9.2,0,0-7.78,5-4.95,12.37,0,0,1.41,12.73,14.14,8.14,0,0,9.55-7.08,14.15-.71,0,0,9.19,9.9,20.15,1.41,0,0,1.77-3.18,6,.71,0,0,11,5.66,15.21-7.42,0,0,4.24-8.84-7.43-14.5,0,0,13.44-.71,10.61-12.38,0,0-3.89-8.84-12.73-2.12,0,0,6-6.72-1.06-8.49,0,0,13.08-5.66,4.24-14.5,0,0-2.83-4.24-7.78-2.83,0,0,2.13-8.13-4.95-10.6a8.53,8.53,0,0,0-5.65,0s.35-9.9-8.49-9.2C82.37,358.66,72.82,358.66,74.24,367.86Z" transform="translate(56.25)"/><g class="cls-17"><path class="cls-18" d="M115.62,425.77c-8.1,7.51-21.67,13-30.09,3.08-.79,1.59-1.59,2.38-2.38,4-5.57-2.38-13.53-1.59-17.51-7.16,6.37-.79,27.05-3.18,28.65-10.34-8.76,4.77-11.94-4-17.51.8a72.37,72.37,0,0,0-11.14-5.57c0-5.57.8-7.16,6.37-7.16V401c-3.18.8-5.57,0-8,0-.79-7.16,8-11.93,4-19.89-.8-.8.8-3.18-3.18-5.57,4-4,9.55-2.39,15.11-3.18-7.85-7.86,6-9.51,10.19-8.78-.91-2.58-3-5.3-7.78-4.92,0,0-9.55,0-8.13,9.2a8.94,8.94,0,0,0-12.38,2.83s-5.66,3.88-1.06,11.66c0,0-7.78-1.76-10.61,6-2.48,6.82-.88,3-.45,2-.29.83-.83,3.79,3.63,8.25,0,0-9.55,1.77-9.9,11,0,0,2.12,7.43,7.43,9.2,0,0-7.78,5-4.95,12.37,0,0,1.41,12.73,14.14,8.14,0,0,9.55-7.08,14.15-.71,0,0,9.19,9.9,20.15,1.41,0,0,1.77-3.18,6,.71,0,0,11,5.66,15.21-7.42A9.86,9.86,0,0,0,115.62,425.77Z" transform="translate(56.25)"/></g><polygon class="cls-14" points="135.43 477.83 137.56 370.69 139.32 477.83 135.43 477.83"/><polygon class="cls-14" points="110.68 409.23 137.56 431.86 137.56 429.03 110.68 409.23"/><polygon class="cls-14" points="122.35 391.9 137.29 408.88 137.2 406.75 122.35 391.9"/><polygon class="cls-14" points="151.7 385.54 137.2 399.68 137.29 401.98 151.7 385.54"/><polygon class="cls-14" points="137.56 418.42 157.71 402.51 136.85 420.9 137.56 418.42"/><polygon class="cls-14" points="137.91 433.27 161.25 420.19 138.26 436.1 137.91 433.27"/><g class="cls-17"><path class="cls-18" d="M115.62,425.77c-8.1,7.51-21.67,13-30.09,3.08-.79,1.59-1.59,2.38-2.38,4-5.57-2.38-13.53-1.59-17.51-7.16,6.37-.79,27.05-3.18,28.65-10.34-8.76,4.77-11.94-4-17.51.8a72.37,72.37,0,0,0-11.14-5.57c0-5.57.8-7.16,6.37-7.16V401c-3.18.8-5.57,0-8,0-.79-7.16,8-11.93,4-19.89-.8-.8.8-3.18-3.18-5.57,4-4,9.55-2.39,15.11-3.18-7.85-7.86,6-9.51,10.19-8.78-.91-2.58-3-5.3-7.78-4.92,0,0-9.55,0-8.13,9.2a8.94,8.94,0,0,0-12.38,2.83s-5.66,3.88-1.06,11.66c0,0-7.78-1.76-10.61,6-2.48,6.82-.88,3-.45,2-.29.83-.83,3.79,3.63,8.25,0,0-9.55,1.77-9.9,11,0,0,2.12,7.43,7.43,9.2,0,0-7.78,5-4.95,12.37,0,0,1.41,12.73,14.14,8.14,0,0,9.55-7.08,14.15-.71,0,0,9.19,9.9,20.15,1.41,0,0,1.77-3.18,6,.71,0,0,11,5.66,15.21-7.42A9.86,9.86,0,0,0,115.62,425.77Z" transform="translate(56.25)"/></g><path class="cls-15" d="M94.29,377.53c0,1.1-2,2-4.38,2s-4.38-.89-4.38-2,2-2,4.38-2S94.29,376.43,94.29,377.53Z" transform="translate(56.25)"/><path class="cls-15" d="M100.26,395.43c0,.7-1.25,1.27-2.79,1.27s-2.79-.57-2.79-1.27,1.25-1.27,2.79-1.27S100.26,394.73,100.26,395.43Z" transform="translate(56.25)"/><path class="cls-15" d="M78.38,385.88c0,.7-1.25,1.27-2.79,1.27s-2.79-.57-2.79-1.27,1.25-1.26,2.79-1.26S78.38,385.18,78.38,385.88Z" transform="translate(56.25)"/><path class="cls-20" d="M105.43,385.09c0,.7-1.24,1.27-2.79,1.27s-2.79-.57-2.79-1.27,1.25-1.27,2.79-1.27S105.43,384.39,105.43,385.09Z" transform="translate(56.25)"/><path class="cls-20" d="M112.21,428.29c0,.7-1.25,1.27-2.79,1.27s-2.79-.57-2.79-1.27,1.25-1.26,2.79-1.26S112.21,427.59,112.21,428.29Z" transform="translate(56.25)"/><path class="cls-20" d="M92.42,402.72c0,.52-.94.95-2.1.95s-2.09-.43-2.09-.95.94-1,2.09-1S92.42,402.19,92.42,402.72Z" transform="translate(56.25)"/><path class="cls-20" d="M84.46,362.73c0,.52-.94.95-2.09.95s-2.09-.43-2.09-.95.93-1,2.09-1S84.46,362.2,84.46,362.73Z" transform="translate(56.25)"/><path class="cls-20" d="M113.47,409.94c0,1.05-1.88,1.9-4.19,1.9s-4.19-.85-4.19-1.9S107,408,109.28,408,113.47,408.89,113.47,409.94Z" transform="translate(56.25)"/><path class="cls-21" d="M134.39,362.26s-9.12-17.42,4.57-22.81c0,0,10.78-7.05,18.25,0,0,0,12,9.12,5.8,21.15,0,0-3.45,1.88-.8,5.37a10.49,10.49,0,0,0,1.63,1.68c5.4,4.57,8.72,11.2,2.49,21.57,0,0,10.37,12.86.42,23.64,0,0-3.73,8.3-17.84,9.13,0,0-20.32-2.07-20.74-18.66a14.45,14.45,0,0,1,3.73-10,8,8,0,0,0-2.07-3.73s-11.61-14.52,4.15-25.31A1.46,1.46,0,0,0,134.39,362.26Z" transform="translate(56.25)"/><polygon class="cls-14" points="202.67 472.59 203.91 350.23 206.4 472.59 202.67 472.59"/><polygon class="cls-14" points="215.53 397.1 204.33 410.79 204.33 413.28 215.53 397.1"/><path class="cls-14" d="M136.47,381.34c1.24.41,11.2,11.62,11.2,11.62V395Z" transform="translate(56.25)"/><polygon class="cls-14" points="211.38 366.82 204.33 374.7 204.33 376.36 211.38 366.82"/><g class="cls-17"><path class="cls-18" d="M166.75,412.86a18.26,18.26,0,0,0,1.95-2.53c-4.73-.14-9.46,3.78-14.19,3.78-3.11,0-6.84-2.49-9.95-3.11,4.35-8.09-12.45-15.56-1.87-18.67-1.24,0-3.11-1.24-5-1.24,3.74-6.22,1.87-8.71-3.11-11.82,0,0-.62,1.24-1.24.62-3.11-8.09,11.82-14.31,14.93-20.53-3.73,1.24-6.84.62-10.58-.62-.62-5,3.11-7.47,7.47-8.72-1.24-1.24-1.87-3.73-4.36-5,1.86-7.43,8.64-6.24,14.84-6.84-7.32-4.89-16.7,1.24-16.7,1.24-13.69,5.39-4.57,22.81-4.57,22.81a1.46,1.46,0,0,1-.41,2.07c-15.76,10.79-4.15,25.31-4.15,25.31a8,8,0,0,1,2.07,3.73,14.45,14.45,0,0,0-3.73,10c.42,16.59,20.74,18.66,20.74,18.66C163,421.16,166.75,412.86,166.75,412.86Z" transform="translate(56.25)"/></g><path class="cls-15" d="M157.91,346.48c0,1.29-2.29,2.34-5.13,2.34s-5.13-1.05-5.13-2.34,2.3-2.33,5.13-2.33S157.91,345.2,157.91,346.48Z" transform="translate(56.25)"/><path class="cls-15" d="M170.54,404.22c0,.82-1.46,1.49-3.27,1.49S164,405,164,404.22s1.46-1.49,3.27-1.49S170.54,403.4,170.54,404.22Z" transform="translate(56.25)"/><path class="cls-15" d="M160.27,380.51c0,.82-1.46,1.49-3.27,1.49s-3.27-.67-3.27-1.49S155.19,379,157,379,160.27,379.69,160.27,380.51Z" transform="translate(56.25)"/><path class="cls-15" d="M160.51,354.38c0,.41-.74.74-1.64.74s-1.64-.33-1.64-.74.73-.75,1.64-.75S160.51,354,160.51,354.38Z" transform="translate(56.25)"/><path class="cls-15" d="M153.27,397.31c0,.41-.74.75-1.64.75s-1.64-.34-1.64-.75.74-.74,1.64-.74S153.27,396.9,153.27,397.31Z" transform="translate(56.25)"/><path class="cls-22" d="M164.74,372.24c0,.62-1.09,1.12-2.45,1.12s-2.45-.5-2.45-1.12,1.09-1.12,2.45-1.12S164.74,371.62,164.74,372.24Z" transform="translate(56.25)"/><path class="cls-22" d="M144.21,356.06c0,.62-1.1,1.12-2.45,1.12s-2.46-.5-2.46-1.12,1.1-1.11,2.46-1.11S144.21,355.45,144.21,356.06Z" transform="translate(56.25)"/><path class="cls-22" d="M151.07,338.64c0,.31-.55.56-1.22.56s-1.23-.25-1.23-.56.55-.56,1.23-.56S151.07,338.33,151.07,338.64Z" transform="translate(56.25)"/><path class="cls-22" d="M163.21,388.22c0,.31-.55.56-1.23.56s-1.23-.25-1.23-.56.55-.55,1.23-.55S163.21,387.92,163.21,388.22Z" transform="translate(56.25)"/><path class="cls-22" d="M140.19,401c0,.31-.55.56-1.23.56s-1.23-.25-1.23-.56.55-.56,1.23-.56S140.19,400.67,140.19,401Z" transform="translate(56.25)"/><path class="cls-23" d="M191.6,477c0,3.08-5.38,5.57-12,5.57H-.39c-6.63,0-12-2.49-12-5.57v-8.35c0-3.08,5.37-5.58,12-5.58h180c6.62,0,12,2.5,12,5.58Z" transform="translate(56.25)"/><path class="cls-2" d="M137,123c0-.66.05-1.33.05-2a48,48,0,0,0-96,0c0,.67,0,1.34,0,2Z" transform="translate(56.25)"/><path class="cls-2" d="M151,85a38,38,0,0,0-38,38h76A38,38,0,0,0,151,85Z" transform="translate(56.25)"/><path class="cls-2" d="M222.3,123a26,26,0,0,0-50.6,0Z" transform="translate(56.25)"/><path class="cls-2" d="M254.16,123a22,22,0,0,0-42.32,0Z" transform="translate(56.25)"/><path class="cls-2" d="M16.16,123A22,22,0,0,0-5,107a22,22,0,0,0-21.16,16Z" transform="translate(56.25)"/><path class="cls-2" d="M37,85A38,38,0,0,0-1,123H75A38,38,0,0,0,37,85Z" transform="translate(56.25)"/><path class="cls-2" d="M511.61,57c0-.45,0-.9,0-1.36a32.64,32.64,0,1,0-65.28,0c0,.46,0,.91,0,1.36Z" transform="translate(56.25)"/><path class="cls-2" d="M521.16,31.16A25.84,25.84,0,0,0,495.32,57H547A25.84,25.84,0,0,0,521.16,31.16Z" transform="translate(56.25)"/><path class="cls-2" d="M569.64,57a17.68,17.68,0,0,0-34.4,0Z" transform="translate(56.25)"/><path class="cls-2" d="M591.31,57a15,15,0,0,0-28.78,0Z" transform="translate(56.25)"/><path class="cls-2" d="M429.47,57a15,15,0,0,0-28.78,0Z" transform="translate(56.25)"/><path class="cls-2" d="M443.64,31.16A25.84,25.84,0,0,0,417.8,57h51.68A25.84,25.84,0,0,0,443.64,31.16Z" transform="translate(56.25)"/><path class="cls-2" d="M600.39,203c0-.45,0-.9,0-1.36a32.64,32.64,0,1,1,65.28,0c0,.46,0,.91,0,1.36Z" transform="translate(56.25)"/><path class="cls-2" d="M590.84,177.16A25.84,25.84,0,0,1,616.68,203H565A25.84,25.84,0,0,1,590.84,177.16Z" transform="translate(56.25)"/><path class="cls-2" d="M542.36,203a17.68,17.68,0,0,1,34.4,0Z" transform="translate(56.25)"/><path class="cls-2" d="M520.69,203a15,15,0,0,1,28.78,0Z" transform="translate(56.25)"/><path class="cls-2" d="M682.53,203a15,15,0,0,1,28.78,0Z" transform="translate(56.25)"/><path class="cls-2" d="M668.36,177.16A25.84,25.84,0,0,1,694.2,203H642.52A25.84,25.84,0,0,1,668.36,177.16Z" transform="translate(56.25)"/><g class="cls-17"><path class="cls-24" d="M584.9,271.45c.15-.22.29-.44.43-.66s.17-.28.25-.43.25-.46.36-.7l.21-.43c.12-.29.24-.58.35-.88,0-.1.08-.2.11-.3a11.85,11.85,0,0,0,.35-1.2c0-.16.07-.32.11-.48s.09-.39.13-.59l0,0a19.16,19.16,0,0,0-2.85-13.56,19.74,19.74,0,0,0-8.79-7.67c-.1-.42-.23-.94-.29-1.22-3.7-15.89-7.26-38.64-7.26-38.64l-21,4.47s8,20,12,35.55l.07.29a43.6,43.6,0,0,1-6.85-1.46L551,247.66c2,.62,6.22-.49,8.41-1.16l.17.74-.59.46a43.89,43.89,0,0,1-6.73,3.28l1.77,3.34c-.57,2.31,0,4.52,1.21,6.82l-8.42,5.31-1.57-1.92-20,12.81-68.53-26.5.82-.8-9.25-2.46-4.66-1.8-.19.51-4.07-1.08-.49.64-2.35-1.21c-.16.48-.33.93-.5,1.37l2-11.87a16.45,16.45,0,0,0,7.49-7.76,4.31,4.31,0,0,0,1-1.58l3.54-11a9.4,9.4,0,0,0,5.77-17.9l.16-.5a6.64,6.64,0,0,1,2,1.16s15.86-26.27,3.27-35.84c0,0-10.13-12-40-18.5,0,0-12.17-1.82-13.92,7.17a9.08,9.08,0,0,0-1.18,2.3,9.36,9.36,0,0,0,6,11.8,10.28,10.28,0,0,0,1.68.41l.32.15a15.62,15.62,0,0,0-6.8,8.4c-.12.37-.21.74-.3,1.11a5,5,0,0,0-.23.53l-11.07,34.34a4.3,4.3,0,0,0-.15,1.82c-1.72,8,3.48,16.75,12.56,22h0c.69.4,1.4.78,2.14,1.14l-.84,5.9-6.81-.76-.21-.46L388.79,233l.81,1.74-32-15.43L356,180l-4.36.15-1.18-13.45c5.63-1,9.29-3.94,8.29-15.43-.71-8.1-9.13-14-18.82-13.14A19.18,19.18,0,0,0,327.38,144v0l-.27.32c-.16.18-.32.36-.46.54s-.33.43-.48.65-.33.48-.48.72l-.41.67c-.09.16-.16.31-.24.47s-.22.45-.32.68-.14.31-.2.47-.18.48-.26.73l-.15.46c-.08.27-.14.54-.2.82,0,.13-.07.26-.09.39a10.27,10.27,0,0,0-.17,1.24,3.91,3.91,0,0,0-.08,1.23l.08.87v.08L326,181.05l-4.93.18,6.63,58.06,46.3,35-11.32,75.38c-9.37,40-55.36,72.39-55.36,72.39,1.77.74,3.51,1.45,5.22,2.15a11.59,11.59,0,0,0-2.08,12.13,11.29,11.29,0,0,0,.58,3,11.45,11.45,0,0,0,2.69,4.39l57.5,81.06,5-4.59c-3.31,5.14-14.78,23.65-13,31,0,0-1.39,2.79,3.5,3.48l28.76-39.15s-3.49-8.47-10.12-3.75l-49-74.74,5.27-2.11c28.11,9.14,44.87,10.35,54.77,8l-.26,2.91,12.49-3.41,2.27-10.22,5.68,12.49,16.46,8-.34-6.11c16.56,6.07,40,6.56,58.77,5.63L425,510.35l1.47,2.17c-4.81-3.19-9.07,2.86-9.07,2.86l19.39,44.53c4.93.42,4.18-2.62,4.18-2.62,3-6-2.12-22.56-4.83-30.41l1.57,2.31L513,463.42a11.57,11.57,0,0,0,3.63-3.7,11.9,11.9,0,0,0,1.22-2.8,11.58,11.58,0,0,0,2.1-7.3l2-.29c-.85-1-1.73-1.92-2.62-2.87a11.57,11.57,0,0,0-4-5.5l-14.39-12.79c-11.31-11.76-22.53-26.49-29.23-51.23-7-25.82-9-81.89-9-81.89l59.37,17.31,43.07-23.47-2-2.47,8.06-5.08L586,277.68s-.74-2-1.86-5.24l.49-.6Z" transform="translate(56.25)"/><path class="cls-24" d="M360.76,108.85a1.34,1.34,0,0,1,.11-.14c0,.11,0,.21,0,.32.54,3,13.41,1.76,29-2.15s27.35-9.46,27-12.27l.13,0-5.88-23.3-.06,0,10.27-6.68c.17,2.79,1.22,8.58,6.8,10.9a18.55,18.55,0,0,1,7.33,13.92,2.28,2.28,0,0,0-.4,4.23,4.81,4.81,0,0,0-.31,1.27.63.63,0,0,0-.1.66s0,0,0,.08A16.3,16.3,0,0,0,435,99a9.69,9.69,0,0,1-1.43,3.33.62.62,0,0,0,.14.87.58.58,0,0,0,.52.1.56.56,0,0,0,.35-.24,10.51,10.51,0,0,0,1.72-4.21l1.12-.2a9.57,9.57,0,0,1-.91,4.43.62.62,0,0,0,.27.84.55.55,0,0,0,.43.05.64.64,0,0,0,.41-.31,10.48,10.48,0,0,0,1-5.23l1.16-.21a9.43,9.43,0,0,1-.4,4.13.63.63,0,0,0,.74.82.61.61,0,0,0,.44-.4,10.35,10.35,0,0,0,.28-5.56,7.68,7.68,0,0,0-2.66-4.5,2.25,2.25,0,0,0,.17-1.56,2.29,2.29,0,0,0-1.6-1.63c-.68-10.25-7.62-14.78-8-15-5.59-2.34-6.13-8.57-6.16-10.59l3.78-2.45-49.51-6.18L336.79,85.29l18.36,1.33Z" transform="translate(56.25)"/></g><path class="cls-25" d="M511.12,280.79c.24-.15.49-.28.73-.41s.32-.25.49-.37l37.87-23.87c-2.59-5.09-2.48-9.78,7.27-15.93,6.89-4.33,16.67-1.19,21.85,7,4.72,7.49,4,16.6-1.38,21.44a3.82,3.82,0,0,1-.93.81l-.74.46s0,0,0,0h0L526,301.67a4.63,4.63,0,0,1-.54.29c-.22.16-.44.33-.68.48-5.46,3.44-12.94,1.38-16.71-4.6S505.66,284.23,511.12,280.79Z" transform="translate(56.25)"/><path class="cls-26" d="M507.86,284a13.44,13.44,0,0,0,2,8.94c3.77,6,11.25,8,16.72,4.59.23-.15.46-.32.68-.48a4.74,4.74,0,0,0,.54-.29L578,265.09l0,0,0,0,.74-.46a4,4,0,0,0,.93-.81,12.74,12.74,0,0,0,2.44-3,13.79,13.79,0,0,1-4.25,7.91,3.82,3.82,0,0,1-.93.81l-.74.46s0,0,0,0h0L526,301.67a4.63,4.63,0,0,1-.54.29c-.22.16-.44.33-.68.48-5.46,3.44-12.94,1.38-16.71-4.6A12.84,12.84,0,0,1,507.86,284Z" transform="translate(56.25)"/><path class="cls-27" d="M425.83,260.52a15.87,15.87,0,0,1,29.29-7.89,15.65,15.65,0,0,1,1.05,2l63.43,19.91-5.37,28.83-76.06-24C432.3,277.38,424.4,268.29,425.83,260.52Z" transform="translate(56.25)"/><path class="cls-26" d="M425.83,260.52a15.88,15.88,0,0,1,7.39-12.85,16.29,16.29,0,0,1,3.7-1.72,15.83,15.83,0,0,0-4.26,10.27C431.23,264,439.13,273.07,445,275l70.37,22.22-1.14,6.1-76.06-24C432.3,277.38,424.4,268.29,425.83,260.52Z" transform="translate(56.25)"/><path class="cls-25" d="M349.45,207.71c0-.27-.08-.55-.12-.82a4.14,4.14,0,0,0,0-.61l-3.9-44.6c5.63-1,9.29-3.94,8.29-15.43-.71-8.1-9.13-14-18.82-13.14-8.81.77-15.64,6.87-16.24,14.07a3.91,3.91,0,0,0-.08,1.23l.08.87v.08l5.17,59.15a4.17,4.17,0,0,0,.1.6,7.68,7.68,0,0,0,0,.83c.56,6.44,6.73,11.15,13.77,10.54S350,214.15,349.45,207.71Z" transform="translate(56.25)"/><path class="cls-26" d="M348.87,212.25a13.41,13.41,0,0,1-8.33,3.81c-7,.62-13.2-4.09-13.76-10.53a7.68,7.68,0,0,1,0-.83,4.09,4.09,0,0,1-.1-.61l-5.17-59.15a0,0,0,0,0,0,0v0l-.07-.87a4.21,4.21,0,0,1,.07-1.23,13,13,0,0,1,.91-3.75,13.78,13.78,0,0,0-3.73,8.16,3.91,3.91,0,0,0-.08,1.23l.08.87v.08l5.17,59.15a4.17,4.17,0,0,0,.1.6,7.68,7.68,0,0,0,0,.83c.56,6.44,6.73,11.15,13.77,10.54A12.88,12.88,0,0,0,348.87,212.25Z" transform="translate(56.25)"/><path class="cls-27" d="M420.52,280.52a15.87,15.87,0,0,0-11.42-28.1,16.06,16.06,0,0,0-2.22.36l-54.23-38.46L332.94,236l65.14,46C403.19,285.56,415.2,286.36,420.52,280.52Z" transform="translate(56.25)"/><path class="cls-26" d="M420.52,280.52a15.85,15.85,0,0,0,5.77-13.67,15.69,15.69,0,0,0-.87-4,15.89,15.89,0,0,1-5.6,9.6c-5.32,5.84-17.33,5-22.44,1.55l-60.27-42.59-4.17,4.6,65.14,46C403.19,285.56,415.2,286.36,420.52,280.52Z" transform="translate(56.25)"/><path class="cls-28" d="M328,427a11.61,11.61,0,1,1-14.7-7.31A11.6,11.6,0,0,1,328,427Z" transform="translate(56.25)"/><polygon class="cls-28" points="422.46 519.8 436.65 506.82 384.28 426.96 364.68 438.33 422.46 519.8"/><path class="cls-28" d="M311.44,416.35a11.61,11.61,0,1,1-5.86,15.34A11.6,11.6,0,0,1,311.44,416.35Z" transform="translate(56.25)"/><polygon class="cls-28" points="480.92 394.8 450.65 370.62 367.69 416.35 380.9 434.77 480.92 394.8"/><path class="cls-29" d="M361.76,549.72l28.76-39.15s-3.49-8.47-10.12-3.75l-8.29,7s-16,23.77-13.85,32.38C358.26,546.24,356.87,549,361.76,549.72Z" transform="translate(56.25)"/><path class="cls-30" d="M440,398.61s-60.51,7.34-52.65-35.95l60.55,2.89S448.84,390.27,440,398.61Z" transform="translate(56.25)"/><path class="cls-28" d="M491.77,442.65a11.61,11.61,0,1,0,16-3.89A11.61,11.61,0,0,0,491.77,442.65Z" transform="translate(56.25)"/><polygon class="cls-28" points="488.91 524.19 476.21 505.35 548.02 442.65 564.63 458.07 488.91 524.19"/><path class="cls-28" d="M510.3,436a11.61,11.61,0,1,0,2.33,16.25A11.61,11.61,0,0,0,510.3,436Z" transform="translate(56.25)"/><polygon class="cls-28" points="460.88 389.92 495.74 373.03 566.55 435.96 549.59 451.01 460.88 389.92"/><path class="cls-29" d="M431.75,554.91l-19.39-44.53s5.27-7.49,10.69-1.42l6.53,8.69s10.32,26.72,6.35,34.64C435.93,552.29,436.68,555.33,431.75,554.91Z" transform="translate(56.25)"/><path class="cls-31" d="M386.25,364.87l62.12,1.1,1.4-108.73s-1.8-17.64-24.1-15.51l-35.08-3.31s-1.66,9.05-3.45,29.39Z" transform="translate(56.25)"/><path class="cls-26" d="M449.77,257.24a18.07,18.07,0,0,0-14-15,18.39,18.39,0,0,1,6.37,11.28l-1.39,108.73-54.46-1,0,3.54,62.12,1.1Z" transform="translate(56.25)"/><path class="cls-25" d="M433.89,224l-4.38,25.65s-17.05,12.15-26.7-3.75L406,223.14S424,228.92,433.89,224Z" transform="translate(56.25)"/><path class="cls-32" d="M516.93,444.33s-109,17-109.86-26.41l6.81-139.67s18.74-20.44,24.7-37.47l81.62,31.56,20-12.81,19.91,24.36-43.07,23.47-59.37-17.31s2,56.07,9,81.89C477.75,412.82,501.13,426.38,516.93,444.33Z" transform="translate(56.25)"/><path class="cls-32" d="M316.06,176.23,351,175l1.69,39.34,44.2,21.35,12.77,40.88-5.11,140.52s16.18,49.4-102.2,0c0,0,46-32.36,55.36-72.39L369,269.3l-46.3-35Z" transform="translate(56.25)"/><path class="cls-25" d="M456.8,202.73a9.4,9.4,0,0,0-6-11.82l1.76-5.45c.06-.19.09-.38.13-.57.14-.35.28-.71.4-1.08,3.28-10.18-5.42-22.08-19.43-26.6s-28,.07-31.3,10.25c-.12.37-.21.74-.3,1.11a5,5,0,0,0-.23.53l-11.07,34.34a4.3,4.3,0,0,0-.15,1.82c-2.12,9.85,6.26,20.85,19.46,25.11s26.42.23,30.46-9a4.31,4.31,0,0,0,1-1.58l3.54-11A9.41,9.41,0,0,0,456.8,202.73Z" transform="translate(56.25)"/><path class="cls-26" d="M450.77,190.91l1.76-5.45c.06-.19.09-.38.13-.57.14-.35.28-.71.4-1.08,2-6.18-.45-13-5.8-18.42,3.77,4.92,5.28,10.64,3.58,15.89q-.18.56-.39,1.08c0,.19-.08.38-.13.57l-2.18,8c4.92,1.6,8,4.36,6.44,9.29a9.39,9.39,0,0,1-11.79,6.07l-3.54,11a4.34,4.34,0,0,1-1,1.58c-4,9.22-17.25,13.24-30.45,9a33.06,33.06,0,0,1-13.3-8A31.86,31.86,0,0,0,410,230.37c13.2,4.25,26.42.23,30.46-9a4.31,4.31,0,0,0,1-1.58l3.54-11a9.4,9.4,0,0,0,5.77-17.9Z" transform="translate(56.25)"/><path class="cls-33" d="M402.09,202.74s13.33,3.59,20,3.53c0,0,4.48.53,3.69,4.58,0,0-1.08,6-11.27,8.52,0,0-7,1.63-13.74-5.71,0,0-4.4-6.22-2.34-10.15C398.41,203.51,398.74,201.37,402.09,202.74Z" transform="translate(56.25)"/><path class="cls-34" d="M399.39,204.53a2.06,2.06,0,0,0,1.7,2.36L419.83,210a2.06,2.06,0,0,0,2.37-1.7h0a2.06,2.06,0,0,0-1.7-2.36l-18.74-3.09a2.05,2.05,0,0,0-2.37,1.7Z" transform="translate(56.25)"/><path class="cls-35" d="M402.45,215.31c1.91-1.59,5.29-2.6,9.12-2.51,4.4.1,8.15,1.61,9.73,3.69a21.05,21.05,0,0,1-6.81,2.88S408.59,220.71,402.45,215.31Z" transform="translate(56.25)"/><path class="cls-36" d="M422.27,188.86a1.44,1.44,0,0,1-.38-2c1.25-1.9,4.87-4.71,9.68-1.79a6.62,6.62,0,0,1,3.37,6.22,1.44,1.44,0,1,1-2.88-.05,3.73,3.73,0,0,0-1.79-3.6l-.15-.08c-3.51-2.15-5.46.37-5.82.89a1.45,1.45,0,0,1-2,.4Z" transform="translate(56.25)"/><path class="cls-36" d="M399.24,183.4a1.42,1.42,0,0,1-.66-1.88c.95-2.06,4.11-5.38,9.3-3.21a6.62,6.62,0,0,1,4.26,5.65,1.44,1.44,0,1,1-2.86.38,3.7,3.7,0,0,0-2.31-3.29l-.16-.06c-3.78-1.61-5.34,1.17-5.61,1.75a1.45,1.45,0,0,1-1.92.68Z" transform="translate(56.25)"/><path class="cls-37" d="M456.19,155.73s-10.13-12-40-18.5c0,0-12.17-1.82-13.92,7.17a9.08,9.08,0,0,0-1.18,2.3,9.36,9.36,0,0,0,6,11.8,10.28,10.28,0,0,0,1.68.41c3.56,1.7,9.26,3.75,18.1,6.34,2.06.6,4.08,1.11,6,1.53-.52,1.83-3.08,13.18,11.63,17.08l-3.74,13.35a2.58,2.58,0,0,0,1.93,2.68s2.63,1.81,5.9-9.56c0,0,1.71-.84,4.25,1.24C452.92,191.57,468.78,165.3,456.19,155.73Z" transform="translate(56.25)"/><path class="cls-3" d="M393.44,233.12l11.5,1.27s-3.55,12.92,8.94,17.89c0,0,11.92,4.11,17.6-12.64L442,245l-29,31.51Z" transform="translate(56.25)"/><path class="cls-38" d="M410.19,252.7l-5.39,51.1,4,15.62,7.1-13.91,2.27-51.95S415.73,255.69,410.19,252.7Z" transform="translate(56.25)"/><polygon class="cls-39" points="440.04 228.01 462.18 275.7 447.42 440.92 459.91 437.51 462.18 427.29 467.86 439.78 484.32 447.73 474.67 278.54 508.74 245.04 490.57 240.21 469.56 267.75 453.66 233.12 440.04 228.01"/><path class="cls-29" d="M411.91,89.59c.39,2.8-11.5,8.37-27,12.29s-28.42,5.12-29,2.15c-1.1-6.11,9.57-14.32,25.12-18.24S411.07,83.44,411.91,89.59Z" transform="translate(56.25)"/><polygon class="cls-29" points="388.04 80.28 435.58 83.75 477.6 56.42 428.09 50.23 388.04 80.28"/><path class="cls-40" d="M355.76,103.85,350,81.16s.13-7.12,26.3-14.36c0,0,18.23-5.56,29.82-.44L412,89.66s-11.44-4.52-29.37-.32C382.67,89.34,363.76,93.47,355.76,103.85Z" transform="translate(56.25)"/><path class="cls-41" d="M431.33,85.76l-.13,0a.63.63,0,0,1-.65-.6,18.55,18.55,0,0,0-7.38-14.62c-7.43-3.1-6.83-12.35-6.82-12.44a.62.62,0,0,1,1.24.09c0,.09-.53,8.45,6.15,11.25.4.25,7.65,5,8.06,15.67A.62.62,0,0,1,431.33,85.76Z" transform="translate(56.25)"/><path class="cls-41" d="M433.35,86.11a2.29,2.29,0,1,1-2.78-1.66A2.28,2.28,0,0,1,433.35,86.11Z" transform="translate(56.25)"/><path class="cls-41" d="M429.2,98.26a.58.58,0,0,1-.52-.1.62.62,0,0,1-.14-.87s2.55-3.6,1.15-6.65a.64.64,0,0,1,.31-.83.63.63,0,0,1,.83.31c1.7,3.71-1.15,7.73-1.28,7.9A.56.56,0,0,1,429.2,98.26Z" transform="translate(56.25)"/><path class="cls-41" d="M432.18,98.93a.55.55,0,0,1-.43-.05.62.62,0,0,1-.27-.84s2-3.94.15-6.75a.62.62,0,0,1,1-.68c2.24,3.42,0,7.82-.08,8A.64.64,0,0,1,432.18,98.93Z" transform="translate(56.25)"/><path class="cls-41" d="M435.12,98.13a.63.63,0,0,1-.74-.82s1.46-4.17-.73-6.71a.63.63,0,0,1,.07-.88.62.62,0,0,1,.88.06c2.66,3.1,1,7.76,1,8A.61.61,0,0,1,435.12,98.13Z" transform="translate(56.25)"/><path class="cls-41" d="M430,94l6-1.07a7.62,7.62,0,0,0-3.4-5.79S428.66,86.22,430,94Z" transform="translate(56.25)"/><path class="cls-42" d="M555.73,242.59s-3.73,6-6.54,7.09l-2-3.7s6.63-2.54,8.23-4.52" transform="translate(56.25)"/><path class="cls-42" d="M555.79,241s-7,2.48-9.82,1.62l1.23-4.09s6.63,2,9.21,1.43" transform="translate(56.25)"/><path class="cls-3" d="M563,199.72s3.56,22.75,7.26,38.64c3.08,13.29,10.75,34.32,10.75,34.32l-19.72,4.87s-2.61-18-6.74-35.55C550.82,226.19,542,204.19,542,204.19Z" transform="translate(56.25)"/><path class="cls-43" d="M569.69,235.91s.4,1.83.56,2.45.43,1.83.43,1.83L555,244.36,554,239.71Z" transform="translate(56.25)"/><path class="cls-44" d="M286.91,446.24l-11.78-7c2.07-3.5,3.09-5.61,3.09-5.61l-.89-.68.3,0s-31.22-29.62-42.43-48.84l-10.3-76.56L272,277.65l3.58-44.92-1.43-.56,7.92-50v-.08l.12-.83a4,4,0,0,0,0-1.2c0-.4-.06-.8-.11-1.2,0-.13-.05-.25-.07-.38s-.1-.54-.17-.81-.07-.29-.11-.44-.15-.49-.23-.73-.11-.29-.16-.44-.2-.47-.3-.7-.13-.29-.2-.43-.27-.51-.41-.76l-.2-.34c-.2-.32-.41-.64-.64-1l-.34-.43c-.11-.14-.21-.28-.32-.41v0a18.59,18.59,0,0,0-11.84-6.24c-9.31-1.22-17.68,4.11-18.7,11.9-1.45,11,2,14,7.35,15.23l-4.9,30-2-.79L242.29,255l-29.68,17.68.17-.6h-10.4l-.61,1.71-5.47.14-1.23-16.47c7.35-4.23,11.92-10.94,11.45-17.83a4.23,4.23,0,0,0,.11-1.8l-4.51-26.74a2.11,2.11,0,0,0,.57,0c.65-6.88-2.46-22.61-2.46-22.61a14.23,14.23,0,0,0-1.77-4.53l-5.07-21,17.17-10.7-54.33-8.74-45,31.35,4.92.46c1,2,3.66,8.32-.57,13.45a20.56,20.56,0,0,0-1.68,14c-10.62,11-7.79,27.77-7.59,28.95l4.07,34.82c21.86,4.73,14.5-21.1,14.5-21.1-1.91-11.27-1.73-19.67-.44-25.92l.1.05a.62.62,0,0,0,.46,0,.67.67,0,0,0,.46-.36.69.69,0,0,0-.31-.92,3.91,3.91,0,0,1-.39-.22c2.42-9.88,7.74-14,11.48-15.65a54.39,54.39,0,0,0-1,12.79L141,244.48c7.82,8.67,11.89,3.23,13.42.05l.34,2a4,4,0,0,0,.71,1.68c1.43,5.21,5.73,9.3,11.53,11.59l3.21,11.48-.09-.06-2.3-.19c-1.11-.14-2.16-.23-3.11-.28l-3.93-3.13-8.81.4-8,1.2,6,5.22-50,38.17-9.53-2.14-4.2-44.83-61.4,5.75,1.68,18c-4.77.78-9.22,4.68-11.1,10.31a15.87,15.87,0,0,0,.37,11.44h0c0,.13.12.25.18.38s.14.3.22.45.28.49.42.73l.3.44c.12.19.25.37.39.55s.18.23.28.34l.39.46.31.32.44.41.33.28c.17.14.34.28.52.41l.3.21c.28.19.57.37.88.54a3.64,3.64,0,0,0,.9.46l.69.23h.06l7,2.11L32.41,353l61.4-5.75-.61-6.54,4.92,1.3,4.94-2.26.63-.29L150.64,318s-3.24,48.8-8.78,95.24l-20.34,93.4c5.54,1.28,10.92,2.22,16.15,2.89l-31.15,6.6c-1.33-7.75-9.49-4.31-9.49-4.31l-6.91,46.4c3.81,2.85,4.76,0,4.76,0,6.26-3.83,11-24.32,12.22-30.1l.31,6.55L202,518.2a11.3,11.3,0,0,0,4.82-1.18,11.62,11.62,0,0,0,2.43-1.67,11.2,11.2,0,0,0,6.1-14.36l-1.12-3.8a136.34,136.34,0,0,0,24.83-16.11l2.54,2.32-.44-4a158.69,158.69,0,0,0,20.53-20.92l5.5,2.39-49.53,70.71c-6.25-4.75-9.88,3.32-9.88,3.32L234.4,573.5c4.73-.52,3.48-3.26,3.48-3.26,2-7.07-8.57-25.28-11.61-30.33l4.7,4.57,57.91-76.55a15.23,15.23,0,0,0-2-21.69ZM115.1,201.57a19.69,19.69,0,0,1,1.6-12c4.23-5.11,2.3-11.28,1-14.08l13.4,1.24,0,.05,4.08,16.89C125.89,194.56,119.49,197.59,115.1,201.57Z" transform="translate(56.25)"/><path class="cls-25" d="M244.9,261.72c0-.27.1-.53.15-.79a3.9,3.9,0,0,1,0-.59L257.25,186c-5.39-1.22-8.8-4.19-7.35-15.23,1-7.79,9.39-13.12,18.7-11.9,8.48,1.11,14.81,7.28,15.09,14.25a4,4,0,0,1,0,1.2l-.12.83v.08l-14,88.37a3.75,3.75,0,0,1-.13.58,7.36,7.36,0,0,1-.06.81c-.81,6.18-7,10.47-13.72,9.58S244.09,267.9,244.9,261.72Z" transform="translate(56.25)"/><path class="cls-26" d="M245.28,266.12a12.94,12.94,0,0,0,7.87,4c6.77.89,12.91-3.41,13.72-9.59a7.36,7.36,0,0,0,.06-.81,3.39,3.39,0,0,0,.13-.57l14-88.38a.06.06,0,0,1,0,0v0l.11-.84a4,4,0,0,0,0-1.19,12.39,12.39,0,0,0-.72-3.66,13.35,13.35,0,0,1,3.26,8,4,4,0,0,1,0,1.2l-.12.83v.08l-14,88.37a3.75,3.75,0,0,1-.13.58,7.36,7.36,0,0,1-.06.81c-.81,6.18-7,10.47-13.72,9.58A12.4,12.4,0,0,1,245.28,266.12Z" transform="translate(56.25)"/><path class="cls-27" d="M177.23,312.6A15.33,15.33,0,0,1,189.43,286a16.58,16.58,0,0,1,2.12.43l53.93-34.85,18.11,21.78L198.82,315C193.74,318.19,182.12,318.46,177.23,312.6Z" transform="translate(56.25)"/><path class="cls-26" d="M177.23,312.6a15.37,15.37,0,0,1-4-17.23,15.38,15.38,0,0,0,5,9.51c4.89,5.85,16.51,5.58,21.59,2.43l59.93-38.59,3.83,4.61L198.82,315C193.74,318.19,182.12,318.46,177.23,312.6Z" transform="translate(56.25)"/><path class="cls-25" d="M104.87,313l-.66-.18a3.9,3.9,0,0,0-.47-.2L42,294.1c1.08-4.6.07-8.33-9-11.35-6.37-2.13-13.6,2.32-16.14,9.94-2.32,6.93,0,14.11,5.32,16.94a3.33,3.33,0,0,0,.9.46l.68.23h.07L97,332.63a3,3,0,0,0,.49.13c.22.09.42.18.64.25,5.07,1.69,10.67-1.43,12.52-7S109.93,314.64,104.87,313Z" transform="translate(56.25)"/><path class="cls-26" d="M108.12,314.89a11.05,11.05,0,0,1,.15,7.56c-1.85,5.54-7.45,8.66-12.51,7-.22-.07-.43-.17-.64-.26a2.07,2.07,0,0,1-.49-.12L21.4,306.75h-.06l-.68-.23a3.71,3.71,0,0,1-.91-.46,10.6,10.6,0,0,1-2.54-1.93,11.38,11.38,0,0,0,5,5.52,3.33,3.33,0,0,0,.9.46l.68.23h.07L97,332.63a3,3,0,0,0,.49.13c.22.09.42.18.64.25,5.07,1.69,10.67-1.43,12.52-7A10.62,10.62,0,0,0,108.12,314.89Z" transform="translate(56.25)"/><path class="cls-27" d="M169.33,279.93a13.11,13.11,0,0,0-25.05-.58,11.44,11.44,0,0,0-.45,1.79l-47,28.45,10,22.08,56.32-34.22C167.46,294.72,172,285.88,169.33,279.93Z" transform="translate(56.25)"/><path class="cls-26" d="M169.33,279.93a13.06,13.06,0,0,0-11.76-9.51,13.09,13.09,0,0,1,5.44,7.39c2.67,6-1.88,14.8-6.21,17.53L104.7,327l2.11,4.67,56.32-34.22C167.46,294.72,172,285.88,169.33,279.93Z" transform="translate(56.25)"/><path class="cls-25" d="M272.08,449a11.21,11.21,0,1,0,14.4-6.62A11.21,11.21,0,0,0,272.08,449Z" transform="translate(56.25)"/><polygon class="cls-25" points="288.72 537.49 275.41 524.54 328.32 448.99 346.92 460.55 288.72 537.49"/><path class="cls-25" d="M288.41,439.24a11.21,11.21,0,1,0,5.2,15A11.22,11.22,0,0,0,288.41,439.24Z" transform="translate(56.25)"/><polygon class="cls-25" points="235.99 415.09 265.92 392.64 344.66 439.24 331.36 456.63 235.99 415.09"/><path class="cls-45" d="M235.89,566.5l-26.61-38.64s3.63-8.07,9.88-3.32l7.8,7s14.71,23.42,12.42,31.66C239.38,563.24,240.63,566,235.89,566.5Z" transform="translate(56.25)"/><path class="cls-25" d="M198.25,490a11.21,11.21,0,1,0,15.05,5A11.21,11.21,0,0,0,198.25,490Z" transform="translate(56.25)"/><polygon class="cls-25" points="165.16 527.64 164.27 509.1 254.5 489.98 260.2 511.12 165.16 527.64"/><path class="cls-25" d="M216.85,494a11.21,11.21,0,1,0-6.42,14.5A11.22,11.22,0,0,0,216.85,494Z" transform="translate(56.25)"/><polygon class="cls-25" points="210.13 402.19 247.33 406.2 273.09 493.99 251.5 497.63 210.13 402.19"/><path class="cls-45" d="M91.62,551.19l6.91-46.4s8.16-3.43,9.49,4.31l.89,10.46s-5.23,27.16-12.53,31.63C96.38,551.19,95.43,554,91.62,551.19Z" transform="translate(56.25)"/><path class="cls-31" d="M164.85,418.31s58.2,8.87,51.88-33.15l-58.53,1S156.54,410,164.85,418.31Z" transform="translate(56.25)"/><path class="cls-32" d="M217.72,387.33l-60-.78L155,272.25s-4.8-15.21,28.26-5l23.78-.65s16,1.6,12.64,27Z" transform="translate(56.25)"/><path class="cls-25" d="M167.4,249l5.5,19.63s14.64,12.52,25.72,9.19l-2.4-32S172.39,258.45,167.4,249Z" transform="translate(56.25)"/><path class="cls-32" d="M279.72,426.66s-47.23,98.08-156.7,73L158.24,337.9,228.14,387Z" transform="translate(56.25)"/><path class="cls-32" d="M131,476.4s80.18-57.19,61-119l-13.85-85.9s-14.28-10.88-24.25-5.89L101.4,305.64l-35.6-8L52.45,322.55,99.62,335l52.52-24S143.83,436.37,131,476.4Z" transform="translate(56.25)"/><path class="cls-32" d="M277.11,225.74l-26.77-10.6L243.79,248l-32.71,19.48L204,385.37s37.77,43.92,75.18,40.59c0,0-31.22-29.62-42.43-48.84l-10.3-76.55,47.13-29.92Z" transform="translate(56.25)"/><rect class="cls-3" x="29.96" y="261.36" width="61.67" height="81.94" transform="translate(28.34 6.98) rotate(-5.35)"/><rect class="cls-46" x="62.17" y="300.12" width="21.11" height="3.57" transform="translate(28.43 8.09) rotate(-5.35)"/><rect class="cls-46" x="62.78" y="306.63" width="21.11" height="3.57" transform="translate(27.82 8.18) rotate(-5.35)"/><rect class="cls-46" x="63.39" y="313.13" width="21.11" height="3.57" transform="translate(27.17 8.28) rotate(-5.36)"/><rect class="cls-46" x="64" y="319.64" width="21.11" height="3.57" transform="translate(26.66 8.33) rotate(-5.34)"/><rect class="cls-46" x="36.53" y="302.52" width="21.11" height="3.57" transform="translate(28.09 5.71) rotate(-5.35)"/><rect class="cls-46" x="37.13" y="309.03" width="21.11" height="3.57" transform="translate(27.49 5.8) rotate(-5.35)"/><rect class="cls-46" x="37.74" y="315.54" width="21.11" height="3.57" transform="translate(26.84 5.89) rotate(-5.36)"/><rect class="cls-46" x="38.35" y="322.04" width="21.11" height="3.57" transform="translate(26.34 5.95) rotate(-5.34)"/><path class="cls-25" d="M143.67,220.69a9.3,9.3,0,0,1,7.57-10.7l-.94-5.57a3.64,3.64,0,0,1,0-.57,10.62,10.62,0,0,1-.24-1.12c-1.76-10.41,8.44-20.81,22.77-23.23s27.37,4.06,29.13,14.48c.06.37.1.75.14,1.13a3.41,3.41,0,0,1,.14.55l5.93,35.13a4.21,4.21,0,0,1-.11,1.8c.67,9.93-9.09,19.49-22.6,21.77s-25.85-3.54-28.48-13.12a4.13,4.13,0,0,1-.71-1.69l-1.9-11.24A9.3,9.3,0,0,1,143.67,220.69Z" transform="translate(56.25)"/><path class="cls-26" d="M151.24,210l-.94-5.57a3.64,3.64,0,0,1,0-.57,10.62,10.62,0,0,1-.24-1.12c-1.07-6.33,2.28-12.65,8.29-17.18-4.39,4.28-6.68,9.65-5.77,15,.06.38.15.75.24,1.12a3.64,3.64,0,0,0,0,.57l1,8.1c-5,.88-8.47,3.13-7.62,8.17a9.29,9.29,0,0,0,10.66,7.62l1.9,11.24a4.27,4.27,0,0,0,.71,1.69c2.64,9.58,15,15.4,28.49,13.12a32.57,32.57,0,0,0,14.14-5.91,31.52,31.52,0,0,1-16.67,8.07c-13.5,2.27-25.85-3.54-28.48-13.12a4.13,4.13,0,0,1-.71-1.69l-1.9-11.24A9.29,9.29,0,0,1,151.24,210Z" transform="translate(56.25)"/><path class="cls-33" d="M197.13,228.49s-13.54,1.61-20,.6c0,0-4.46-.12-4.26,3.95,0,0,.21,6,9.81,9.94,0,0,6.64,2.59,14.24-3.63,0,0,5.18-5.45,3.73-9.58C200.62,229.77,200.6,227.64,197.13,228.49Z" transform="translate(56.25)"/><path class="cls-34" d="M199.51,230.62a2,2,0,0,1-2,2.07l-18.76.35a2,2,0,0,1-2.07-2h0a2,2,0,0,1,2-2.07l18.75-.34a2,2,0,0,1,2.07,2Z" transform="translate(56.25)"/><path class="cls-35" d="M195,240.72c-1.65-1.82-4.8-3.29-8.56-3.75-4.31-.53-8.19.42-10,2.22a20.79,20.79,0,0,0,6.25,3.79S188.22,245.13,195,240.72Z" transform="translate(56.25)"/><path class="cls-36" d="M179.39,212.05a1.4,1.4,0,0,0,.64-1.86c-.94-2-4.08-5.29-9.2-3.13a6.57,6.57,0,0,0-4.18,5.6,1.42,1.42,0,0,0,1.23,1.59,1.43,1.43,0,0,0,1.6-1.22,3.66,3.66,0,0,1,2.26-3.27l.16-.06c3.73-1.6,5.28,1.14,5.56,1.7a1.42,1.42,0,0,0,1.89.67Z" transform="translate(56.25)"/><path class="cls-36" d="M202.67,210a1.42,1.42,0,0,0,.91-1.75c-.63-2.15-3.25-5.84-8.63-4.46a6.54,6.54,0,0,0-5,4.91,1.42,1.42,0,1,0,2.73.79,3.67,3.67,0,0,1,2.73-2.89l.16,0c3.93-1,5.06,1.91,5.25,2.51a1.41,1.41,0,0,0,1.77.94Z" transform="translate(56.25)"/><path class="cls-47" d="M194.13,184.53s8.15,16.23-36,19.61l2.89,17.11s-7.22.22-9.82-11.26c0,0-8.66,2.42-7.57,10.7,0,0,2.46,8.6,10.66,7.62l2.28,7.38s-3.77,13.28-14.14,1.79l-5.73-29.27s-2.18-31.68,21.66-37.51c0,0,30-6.86,35.42,4C193.82,174.65,195.73,180.65,194.13,184.53Z" transform="translate(56.25)"/><path class="cls-47" d="M204.19,204.05s-6.51,1.54-10.06-19.52l-2.59-12.65s8.12,0,10.19,9.56C201.73,181.44,204.84,197.17,204.19,204.05Z" transform="translate(56.25)"/><path class="cls-47" d="M107.81,224.67c-.29-1.76-6.41-38,34.46-38.31l-.47,7.9s-22.63,1.42-15.42,44.13c0,0,7.36,25.84-14.5,21.1Z" transform="translate(56.25)"/><polygon class="cls-29" points="268.31 145.24 223.84 172.94 168.97 167.86 213.97 136.5 268.31 145.24"/><path class="cls-40" d="M200.81,180.43l-6-25s-3.78-6.85-32.94-.51c0,0-20.58,3.92-29.24,14.83l6.21,25.68s8.82-10.25,28.41-15.34C167.21,180.09,187.71,174.43,200.81,180.43Z" transform="translate(56.25)"/><path class="cls-41" d="M118,201.51l.13,0a.69.69,0,0,0,.33-.92c-4.78-10-.34-17.92-.3-18,5.64-6.82.32-15.51.27-15.59a.68.68,0,0,0-.94-.22.69.69,0,0,0-.22,1c0,.07,4.84,7.94-.23,14.09-.27.43-4.91,8.72.18,19.36A.69.69,0,0,0,118,201.51Z" transform="translate(56.25)"/><path class="cls-41" d="M116.25,202.88a2.52,2.52,0,1,0,1.86-3A2.52,2.52,0,0,0,116.25,202.88Z" transform="translate(56.25)"/><path class="cls-41" d="M126.5,212.57a.68.68,0,0,0,.46-.35.7.7,0,0,0-.31-.93s-4.33-2.2-4.52-5.88a.68.68,0,0,0-.73-.64.66.66,0,0,0-.64.71c.24,4.49,5.07,6.94,5.28,7A.62.62,0,0,0,126.5,212.57Z" transform="translate(56.25)"/><path class="cls-41" d="M124,214.75a.67.67,0,0,0,.4-.27.69.69,0,0,0-.17-.95s-4-2.83-3.6-6.5a.69.69,0,0,0-1.37-.12c-.43,4.46,4,7.61,4.18,7.74A.66.66,0,0,0,124,214.75Z" transform="translate(56.25)"/><path class="cls-41" d="M120.67,215.47a.66.66,0,0,0,.35-.2.7.7,0,0,0,0-1s-3.55-3.31-2.73-6.9a.69.69,0,1,0-1.34-.31c-1,4.38,3,8.07,3.14,8.22A.65.65,0,0,0,120.67,215.47Z" transform="translate(56.25)"/><path class="cls-41" d="M123.59,208.87l-6.34,2a8.38,8.38,0,0,1,.33-7.37S120.88,200.59,123.59,208.87Z" transform="translate(56.25)"/><polygon class="cls-3" points="217.69 267.44 256.65 302.14 263.32 266.64 255.59 266.91 251.32 278.65 227.83 264.24 213.69 263.04 217.69 267.44"/><polygon class="cls-38" points="245.71 280.25 256.12 280.25 259.32 309.88 258.52 333.09 252.12 309.88 245.71 280.25"/><path class="cls-39" d="M162.25,260.64l33.62,26.82,8-22.42h10.4l-9.6,32.83s16,134.5,36.82,164.12l1.6,14.41-8.8-8-14.41,12-4.81-12s-20-127.29-24-166.52l-45.64-39.63,8-1.2Z" transform="translate(56.25)"/><polygon class="cls-42" points="132.88 299.35 125.8 293.83 118.71 299.35 118.71 274.29 132.88 274.29 132.88 299.35"/><path class="cls-48" d="M80.69,275.24a10.83,10.83,0,1,1-10.83-10.83A10.83,10.83,0,0,1,80.69,275.24Z" transform="translate(56.25)"/><rect class="cls-49" x="56.25" width="595.28" height="595.28"/></g></g></svg>